<svg width="107" height="40" viewBox="0 0 107 40" fill="none" xmlns="http://www.w3.org/2000/svg">
<g clip-path="url(#clip0_1783_28038)">
<path d="M56.2885 11.7071C56.2885 12.9083 55.3208 13.8759 54.1196 13.8759C52.9184 13.8759 51.9508 12.9083 51.9508 11.7071C51.9508 10.5059 52.8851 9.53824 54.1196 9.53824C55.3542 9.5716 56.2885 10.5392 56.2885 11.7071ZM47.3462 16.0781C47.3462 16.2783 47.3462 16.612 47.3462 16.612C47.3462 16.612 46.3118 15.2773 44.1096 15.2773C40.4727 15.2773 37.6365 18.0467 37.6365 21.8839C37.6365 25.6877 40.4393 28.4905 44.1096 28.4905C46.3452 28.4905 47.3462 27.1225 47.3462 27.1225V27.6897C47.3462 27.9567 47.5464 28.1569 47.8133 28.1569H50.516V15.611C50.516 15.611 48.0469 15.611 47.8133 15.611C47.5464 15.611 47.3462 15.8445 47.3462 16.0781ZM47.3462 24.1195C46.8457 24.8536 45.8447 25.4875 44.6435 25.4875C42.508 25.4875 40.8731 24.1529 40.8731 21.8839C40.8731 19.615 42.508 18.2803 44.6435 18.2803C45.8113 18.2803 46.8791 18.9476 47.3462 19.6483V24.1195ZM52.518 15.611H55.7212V28.1569H52.518V15.611ZM100.366 15.2773C98.1637 15.2773 97.1293 16.612 97.1293 16.612V9.5716H93.9261V28.1569C93.9261 28.1569 96.3952 28.1569 96.6288 28.1569C96.8958 28.1569 97.0959 27.9233 97.0959 27.6897V27.1225C97.0959 27.1225 98.1303 28.4905 100.333 28.4905C103.969 28.4905 106.806 25.6877 106.806 21.8839C106.806 18.0801 103.969 15.2773 100.366 15.2773ZM99.832 25.4542C98.5975 25.4542 97.6298 24.8202 97.1293 24.0861V19.615C97.6298 18.9476 98.6976 18.2469 99.832 18.2469C101.967 18.2469 103.602 19.5816 103.602 21.8505C103.602 24.1195 101.967 25.4542 99.832 25.4542ZM92.2578 20.7161V28.1902H89.0546V21.0831C89.0546 19.0144 88.3872 18.1802 86.5854 18.1802C85.6178 18.1802 84.6168 18.6807 83.9828 19.4148V28.1569H80.7796V15.611H83.3155C83.5824 15.611 83.7826 15.8445 83.7826 16.0781V16.612C84.7169 15.6443 85.9515 15.2773 87.186 15.2773C88.5874 15.2773 89.7553 15.6777 90.6895 16.4785C91.824 17.4128 92.2578 18.614 92.2578 20.7161ZM73.0052 15.2773C70.803 15.2773 69.7686 16.612 69.7686 16.612V9.5716H66.5654V28.1569C66.5654 28.1569 69.0346 28.1569 69.2681 28.1569C69.5351 28.1569 69.7353 27.9233 69.7353 27.6897V27.1225C69.7353 27.1225 70.7696 28.4905 72.9718 28.4905C76.6088 28.4905 79.445 25.6877 79.445 21.8839C79.4783 18.0801 76.6422 15.2773 73.0052 15.2773ZM72.4713 25.4542C71.2368 25.4542 70.2691 24.8202 69.7686 24.0861V19.615C70.2691 18.9476 71.3369 18.2469 72.4713 18.2469C74.6068 18.2469 76.2418 19.5816 76.2418 21.8505C76.2418 24.1195 74.6068 25.4542 72.4713 25.4542ZM63.796 15.2773C64.7636 15.2773 65.2641 15.4441 65.2641 15.4441V18.4138C65.2641 18.4138 62.5948 17.5129 60.9265 19.4148V28.1902H57.7233V15.611C57.7233 15.611 60.1924 15.611 60.426 15.611C60.6929 15.611 60.8931 15.8445 60.8931 16.0781V16.612C61.4937 15.9113 62.795 15.2773 63.796 15.2773ZM30.5294 27.0224C30.3626 26.622 30.1957 26.1882 30.0289 25.8212C29.762 25.2206 29.495 24.6534 29.2615 24.1195L29.2281 24.0861C26.9258 19.0811 24.4567 14.0094 21.8541 9.00437L21.754 8.80417C21.487 8.30367 21.2201 7.7698 20.9532 7.23594C20.6195 6.63533 20.2858 6.00137 19.752 5.40077C18.6842 4.0661 17.1494 3.33203 15.5144 3.33203C13.8461 3.33203 12.3446 4.0661 11.2435 5.33403C10.743 5.93463 10.3759 6.5686 10.0422 7.1692C9.77532 7.70307 9.50838 8.23694 9.24145 8.73744L9.14135 8.93764C6.57211 13.9426 4.06961 19.0144 1.76731 24.0194L1.73394 24.0861C1.50038 24.62 1.23344 25.1872 0.966508 25.7878C0.799675 26.1549 0.632841 26.5553 0.466008 26.989C0.032241 28.2236 -0.101226 29.3914 0.0656077 30.5926C0.432641 33.0951 2.10098 35.1972 4.40328 36.1315C5.27081 36.4985 6.17171 36.6654 7.10598 36.6654C7.37291 36.6654 7.70658 36.632 7.97351 36.5986C9.07461 36.4652 10.2091 36.0981 11.3102 35.4642C12.6782 34.6967 13.9795 33.5956 15.4477 31.994C16.9158 33.5956 18.2505 34.6967 19.5851 35.4642C20.6862 36.0981 21.8207 36.4652 22.9218 36.5986C23.1887 36.632 23.5224 36.6654 23.7893 36.6654C24.7236 36.6654 25.6579 36.4985 26.492 36.1315C28.8277 35.1972 30.4627 33.0618 30.8297 30.5926C31.0966 29.4248 30.9632 28.257 30.5294 27.0224ZM15.481 28.7575C13.6792 26.4885 12.5114 24.3531 12.111 22.5513C11.9441 21.7838 11.9108 21.1165 12.0109 20.5159C12.0776 19.982 12.2778 19.5149 12.5448 19.1145C13.1787 18.2136 14.2465 17.6463 15.481 17.6463C16.7156 17.6463 17.8167 18.1802 18.4173 19.1145C18.6842 19.5149 18.8844 19.982 18.9512 20.5159C19.0513 21.1165 19.0179 21.8172 18.8511 22.5513C18.4507 24.3197 17.2828 26.4552 15.481 28.7575ZM28.7943 30.3257C28.5608 32.0608 27.3929 33.5623 25.758 34.2296C24.9572 34.5633 24.0896 34.6634 23.2221 34.5633C22.3879 34.4632 21.5538 34.1962 20.6862 33.6957C19.485 33.0284 18.2838 31.994 16.8824 30.4592C19.0846 27.7565 20.4193 25.2873 20.9198 23.0851C21.1534 22.0508 21.1867 21.1165 21.0866 20.2489C20.9532 19.4148 20.6529 18.6473 20.1857 17.98C19.1514 16.4785 17.4163 15.611 15.481 15.611C13.5458 15.611 11.8107 16.5119 10.7763 17.98C10.3092 18.6473 10.0089 19.4148 9.87541 20.2489C9.74195 21.1165 9.77532 22.0841 10.0422 23.0851C10.5427 25.2873 11.9108 27.7898 14.0796 30.4925C12.7116 32.0274 11.477 33.0618 10.2758 33.7291C9.40828 34.2296 8.57411 34.4965 7.73995 34.5966C6.83905 34.6967 5.97151 34.5633 5.20408 34.263C3.56911 33.5956 2.40128 32.0941 2.16771 30.3591C2.06761 29.5249 2.13434 28.6907 2.46801 27.7565C2.56811 27.4228 2.73494 27.0891 2.90178 26.6887C3.13534 26.1549 3.40228 25.5876 3.66921 25.0204L3.70258 24.9537C6.00488 19.982 8.47401 14.9103 11.0432 9.972L11.1434 9.7718C11.4103 9.2713 11.6772 8.73744 11.9441 8.23694C12.2111 7.70307 12.5114 7.20257 12.8784 6.7688C13.5791 5.968 14.5134 5.53423 15.5478 5.53423C16.5821 5.53423 17.5164 5.968 18.2171 6.7688C18.5841 7.20257 18.8844 7.70307 19.1514 8.23694C19.4183 8.73744 19.6852 9.2713 19.9522 9.7718L20.0523 9.972C22.5881 14.9436 25.0573 20.0154 27.3596 24.987V25.0204C27.6265 25.5543 27.8601 26.1549 28.127 26.6887C28.2938 27.0891 28.4607 27.4228 28.5608 27.7565C28.8277 28.624 28.9278 29.4582 28.7943 30.3257Z" fill="#FF5A5F"/>
</g>
<defs>
<clipPath id="clip0_1783_28038">
<rect width="106.667" height="40" fill="white"/>
</clipPath>
</defs>
</svg>
