<svg width="93" height="40" viewBox="0 0 93 40" fill="none" xmlns="http://www.w3.org/2000/svg">
<g clip-path="url(#clip0_1783_28039)">
<path fill-rule="evenodd" clip-rule="evenodd" d="M57.2778 31.5042C51.9748 35.4129 44.2885 37.4983 37.6707 37.4983C28.3915 37.4983 20.0378 34.0663 13.718 28.3581C13.2214 27.9093 13.6663 27.2975 14.2622 27.6471C21.0825 31.6154 29.5156 34.0027 38.2268 34.0027C44.1018 34.0027 50.5647 32.7872 56.5072 30.2648C57.4049 29.8835 58.1557 30.8527 57.2778 31.5042Z" fill="#FF9900"/>
<path fill-rule="evenodd" clip-rule="evenodd" d="M59.4825 28.9818C58.8072 28.1159 55.0018 28.5727 53.2937 28.7753C52.7733 28.8388 52.6939 28.386 53.1626 28.0602C56.1934 25.9271 61.1667 26.5428 61.7466 27.2578C62.3266 27.9768 61.5957 32.962 58.7476 35.3414C58.3106 35.7069 57.8936 35.5122 58.0882 35.0276C58.7277 33.4307 60.1617 29.8517 59.4825 28.9818Z" fill="#FF9900"/>
<path fill-rule="evenodd" clip-rule="evenodd" d="M53.4138 13.003V10.9295C53.4138 10.6157 53.6521 10.4052 53.9381 10.4052H63.2213C63.5192 10.4052 63.7575 10.6197 63.7575 10.9295V12.7051C63.7536 13.003 63.5033 13.3923 63.0584 14.008L58.248 20.8761C60.0355 20.8324 61.9224 21.0985 63.543 22.0121C63.9085 22.2187 64.0078 22.5206 64.0356 22.8185V25.031C64.0356 25.3329 63.7019 25.6865 63.3524 25.5037C60.4963 24.0062 56.7028 23.8433 53.5448 25.5196C53.2231 25.6944 52.8855 25.3449 52.8855 25.043V22.9416C52.8855 22.604 52.8894 22.028 53.2271 21.5156L58.8002 13.5234H53.95C53.6521 13.5234 53.4138 13.3129 53.4138 13.003Z" fill="black"/>
<path fill-rule="evenodd" clip-rule="evenodd" d="M19.5502 25.9407H16.7259C16.4558 25.9209 16.2413 25.7183 16.2214 25.4601V10.9653C16.2214 10.6753 16.4637 10.4449 16.7656 10.4449H19.3992C19.6733 10.4568 19.8918 10.6674 19.9117 10.9295V12.8243H19.9633C20.6505 10.9931 21.9415 10.1391 23.6813 10.1391C25.449 10.1391 26.5533 10.9931 27.3477 12.8243C28.031 10.9931 29.5841 10.1391 31.2485 10.1391C32.4322 10.1391 33.7272 10.6276 34.5177 11.724C35.4114 12.9435 35.2287 14.7151 35.2287 16.2683L35.2247 25.4164C35.2247 25.7064 34.9824 25.9407 34.6805 25.9407H31.8602C31.5782 25.9209 31.3518 25.6944 31.3518 25.4164V17.734C31.3518 17.1223 31.4074 15.5969 31.2723 15.017C31.0618 14.0438 30.4302 13.7697 29.6119 13.7697C28.9287 13.7697 28.2137 14.2265 27.9237 14.9574C27.6337 15.6883 27.6616 16.9118 27.6616 17.734V25.4164C27.6616 25.7064 27.4192 25.9407 27.1174 25.9407H24.2971C24.011 25.9209 23.7886 25.6944 23.7886 25.4164L23.7846 17.734C23.7846 16.1173 24.0508 13.7379 22.0448 13.7379C20.0149 13.7379 20.0944 16.0577 20.0944 17.734V25.4164C20.0944 25.7064 19.8521 25.9407 19.5502 25.9407Z" fill="black"/>
<path fill-rule="evenodd" clip-rule="evenodd" d="M71.7496 10.1391C75.9404 10.1391 78.2085 13.7379 78.2085 18.314C78.2085 22.7351 75.702 26.2426 71.7496 26.2426C67.6344 26.2426 65.394 22.6437 65.394 18.1591C65.394 13.6466 67.6622 10.1391 71.7496 10.1391ZM71.7735 13.0984C69.692 13.0984 69.5609 15.9346 69.5609 17.7022C69.5609 19.4739 69.5331 23.2555 71.7496 23.2555C73.9383 23.2555 74.0416 20.2048 74.0416 18.3457C74.0416 17.1223 73.99 15.6605 73.6206 14.5006C73.3028 13.4916 72.6712 13.0984 71.7735 13.0984Z" fill="black"/>
<path fill-rule="evenodd" clip-rule="evenodd" d="M83.6427 25.9407H80.8303C80.5483 25.9209 80.3219 25.6944 80.3219 25.4164L80.3179 10.9176C80.3417 10.6515 80.5761 10.4449 80.8621 10.4449H83.4798C83.7261 10.4568 83.9287 10.6237 83.9843 10.8501V13.0666H84.0359C84.8264 11.0845 85.9347 10.1391 87.8851 10.1391C89.1522 10.1391 90.3876 10.5959 91.182 11.8471C91.9209 13.007 91.9209 14.9574 91.9209 16.3596V25.4839C91.8891 25.7381 91.6547 25.9407 91.3767 25.9407H88.5445C88.2863 25.9209 88.0718 25.7302 88.044 25.4839V17.6109C88.044 16.026 88.2267 13.7061 86.2763 13.7061C85.5891 13.7061 84.9575 14.1669 84.6437 14.866C84.2465 15.7519 84.1948 16.6337 84.1948 17.6109V25.4164C84.1909 25.7064 83.9446 25.9407 83.6427 25.9407Z" fill="black"/>
<path fill-rule="evenodd" clip-rule="evenodd" d="M46.0135 19.017C46.0135 20.1174 46.0413 21.0349 45.4851 22.0121C45.0363 22.8066 44.3213 23.2952 43.5308 23.2952C42.4464 23.2952 41.8108 22.4689 41.8108 21.2495C41.8108 18.8423 43.9677 18.4053 46.0135 18.4053V19.017ZM48.8616 25.901C48.6749 26.0678 48.4048 26.0797 48.1942 25.9685C47.2568 25.1899 47.086 24.8285 46.5735 24.0857C45.0244 25.6666 43.924 26.1393 41.9181 26.1393C39.5387 26.1393 37.6916 24.6735 37.6916 21.738C37.6916 19.446 38.9309 17.8849 40.7025 17.1223C42.2358 16.447 44.3769 16.3278 46.0135 16.1411V15.7757C46.0135 15.1044 46.0651 14.3099 45.6679 13.73C45.3263 13.2096 44.6669 12.9951 44.0829 12.9951C43.0065 12.9951 42.0491 13.5472 41.8148 14.6912C41.7671 14.9455 41.5804 15.1957 41.3222 15.2076L38.5853 14.9137C38.3549 14.8621 38.0967 14.6754 38.1643 14.3218C38.7919 11.001 41.7949 10 44.4802 10C45.8546 10 47.65 10.3654 48.7345 11.4062C50.1089 12.6892 49.9778 14.4013 49.9778 16.2643V20.6655C49.9778 21.9883 50.5259 22.5682 51.0423 23.2833C51.2211 23.5375 51.2608 23.8433 51.0304 24.034C50.4544 24.5147 49.4296 25.4084 48.8655 25.9089L48.8616 25.901Z" fill="black"/>
<path fill-rule="evenodd" clip-rule="evenodd" d="M8.9879 19.017C8.9879 20.1173 9.01571 21.0349 8.45959 22.0121C8.01073 22.8066 7.29969 23.2952 6.50524 23.2952C5.42081 23.2952 4.78922 22.4689 4.78922 21.2494C4.78922 18.8423 6.94616 18.4053 8.9879 18.4053V19.017ZM11.836 25.901C11.6493 26.0678 11.3792 26.0797 11.1687 25.9685C10.2312 25.1899 10.0644 24.8285 9.54799 24.0856C7.99881 25.6666 6.90247 26.1393 4.8925 26.1393C2.51709 26.1393 0.666016 24.6735 0.666016 21.738C0.666016 19.446 1.90933 17.8849 3.67699 17.1223C5.21028 16.447 7.35133 16.3278 8.9879 16.1411V15.7757C8.9879 15.1044 9.03954 14.3099 8.64629 13.73C8.3007 13.2096 7.64131 12.9951 7.06136 12.9951C5.98487 12.9951 5.02359 13.5472 4.78922 14.6912C4.74155 14.9455 4.55486 15.1957 4.30063 15.2076L1.55977 14.9137C1.32938 14.8621 1.07516 14.6754 1.13871 14.3218C1.7703 11.001 4.76936 10 7.45461 10C8.82901 10 10.6245 10.3654 11.7089 11.4062C13.0833 12.6892 12.9522 14.4013 12.9522 16.2643V20.6655C12.9522 21.9883 13.5004 22.5682 14.0168 23.2832C14.1995 23.5375 14.2392 23.8433 14.0088 24.034C13.4329 24.5146 12.408 25.4084 11.844 25.9089L11.836 25.901Z" fill="black"/>
</g>
<defs>
<clipPath id="clip0_1783_28039">
<rect width="91.6667" height="40" fill="white" transform="translate(0.666016)"/>
</clipPath>
</defs>
</svg>
