<svg width="195" height="40" viewBox="0 0 195 40" fill="none" xmlns="http://www.w3.org/2000/svg">
<g clip-path="url(#clip0_1783_28044)">
<path d="M71.2356 28.4055C66.2947 28.4055 63.0898 24.8432 63.0898 21.1356V20.6761C63.0898 16.9057 66.2947 13.4062 71.2356 13.4062C76.1764 13.4062 79.4088 16.9057 79.4088 20.6761V21.1356C79.4088 24.8432 76.2039 28.4055 71.2356 28.4055ZM76.7655 20.7154C76.7655 18.0133 74.8018 15.6096 71.2356 15.6096C67.6694 15.6096 65.737 18.0172 65.737 20.7154V21.0532C65.737 23.7553 67.7008 26.2061 71.2356 26.2061C74.7704 26.2061 76.7655 23.7553 76.7655 21.0532V20.7154Z" fill="#3499CD"/>
<path d="M15.413 27.8596L13.571 24.4034H5.37815L3.58326 27.8596H0.833984L8.37486 13.909H10.5546L18.2212 27.8596H15.413ZM9.39995 16.6308L6.36396 22.4985H12.542L9.39995 16.6308ZM30.1177 28.4055C25.1101 28.4055 22.785 25.6798 22.785 22.0586V13.909H25.385V22.0979C25.385 24.6744 27.0817 26.2061 30.3063 26.2061C33.6172 26.2061 34.9761 24.6744 34.9761 22.0979V13.909H37.5958V22.0468C37.5958 25.5149 35.3963 28.4055 30.1177 28.4055ZM52.1748 16.0888V27.8714H49.5551V16.0888H43.4596V13.909H58.2703V16.0888H52.1748ZM102.742 27.8596V16.8193L102.051 18.0368L96.2065 27.8557H94.93L89.1487 18.0368L88.4574 16.8193V27.8596H85.9006V13.909H89.5257L95.0243 23.4804L95.6762 24.6587L96.3243 23.4804L101.772 13.909H105.354V27.8596H102.742ZM125.156 27.8596L123.31 24.4034H115.125L113.346 27.8596H110.597L118.138 13.909H120.314L127.961 27.8596H125.156ZM119.143 16.6308L116.107 22.4985H122.285L119.143 16.6308ZM138.518 16.0888V27.8714H135.902V16.0888H129.807V13.909H144.613V16.0888H138.518ZM157.727 16.0888V27.8714H155.108V16.0888H149.012V13.909H163.827V16.0888H157.727ZM170.276 27.8596V15.2286C171.321 15.2286 171.741 14.6631 171.741 13.909H172.86V27.8596H170.276ZM193.358 17.8483C191.855 16.4163 189.861 15.6139 187.785 15.6057C184.058 15.6057 181.96 18.1625 181.96 20.8214V21.0924C181.96 23.7318 184.077 26.1982 187.973 26.1982C190.012 26.1599 191.962 25.3598 193.441 23.9556L195.012 25.6091C193.052 27.4356 190.464 28.4371 187.785 28.4055C182.506 28.4055 179.301 24.9689 179.301 21.1985V20.739C179.301 16.9685 182.801 13.4062 187.911 13.4062C190.864 13.4062 193.547 14.6434 194.98 16.1909L193.358 17.8483ZM71.558 18.58L69.1595 22.2955C69.0136 22.5212 68.9634 22.7956 69.0199 23.0583C69.0764 23.321 69.235 23.5506 69.4607 23.6964L69.4642 23.6984C69.576 23.7706 69.7009 23.82 69.8318 23.8439C69.9628 23.8678 70.0971 23.8657 70.2272 23.8377C70.3573 23.8097 70.4806 23.7563 70.59 23.6807C70.6995 23.605 70.793 23.5085 70.8652 23.3967L73.2641 19.6813C73.4098 19.4555 73.4598 19.1812 73.4033 18.9186C73.3467 18.6559 73.1882 18.4265 72.9625 18.2807L72.959 18.2784C72.8472 18.2062 72.7222 18.1567 72.5913 18.1328C72.4604 18.1089 72.3261 18.111 72.196 18.139C72.0659 18.167 71.9426 18.2204 71.8331 18.2961C71.7237 18.3717 71.6302 18.4682 71.558 18.58Z" fill="#010101"/>
</g>
<defs>
<clipPath id="clip0_1783_28044">
<rect width="194.167" height="40" fill="white" transform="translate(0.833984)"/>
</clipPath>
</defs>
</svg>
