<svg width="39" height="40" viewBox="0 0 39 40" fill="none" xmlns="http://www.w3.org/2000/svg">
<g clip-path="url(#clip0_1783_28046)">
<path d="M68.7786 15.5204C70.7873 13.4854 73.0131 14.0839 73.0131 16.0577C73.0131 17.9841 70.7324 20.0636 67.9817 21.6754C67.7151 21.8285 67.3991 22.0067 67.0804 22.1654C66.9732 21.681 66.9128 21.1437 66.9128 20.5452C66.9128 18.8999 67.6025 16.7119 68.7786 15.5204ZM58.0645 36.2933C55.3963 38.9963 51.9861 35.55 55.9651 31.519C56.8664 30.6059 58.3448 29.6009 59.8836 28.6851C60.7602 30.8899 60.065 34.2583 58.0645 36.2933ZM41.0687 25.4698C39.0215 25.4698 37.697 22.9838 38.1064 19.9133C38.5076 16.8427 40.4944 14.3567 42.5388 14.3567C44.4321 14.3567 45.7071 16.4919 45.5615 19.2479C45.5093 19.646 45.4626 20.0302 45.4241 20.4004C44.8855 23.2371 43.0005 25.4698 41.0687 25.4698ZM14.0457 24.4481C13.378 25.1246 12.5619 25.4837 11.7348 25.4837C10.9626 25.4837 10.2948 25.1301 9.74252 24.5706C7.84921 22.6525 8.01408 17.9451 10.446 15.4731C11.1357 14.7743 11.9683 14.3679 12.8257 14.3679C13.5923 14.3679 14.2656 14.7131 14.8179 15.2726C16.6013 17.0793 16.7057 21.7534 14.0457 24.4481ZM77.3933 25.4531C77.3933 25.4531 76.6349 24.3785 76.4013 24.0723C76.2419 23.8718 76.0441 23.6269 75.522 23.9888C74.3706 24.771 73.0736 25.4865 71.4743 25.4865C70.2542 25.4865 69.1853 25.1719 68.3911 24.4899C68.7236 24.3367 69.0726 24.1669 69.4298 23.9748C71.3177 22.9393 72.8922 21.6253 73.6506 20.857C77.3246 17.135 76.1732 11.5841 71.6969 11.5841C67.4678 11.5841 64.1264 15.7598 64.1264 20.3976C64.1264 21.0964 64.2088 22.093 64.5056 23.1536C64.2555 23.2761 62.5821 24.0973 60.5733 25.2192C58.6855 23.7828 55.7398 24.4286 55.7398 24.4286C58.4739 20.4979 62.5903 14.3567 62.9393 13.8501C63.1894 13.4882 63.1509 13.1291 62.9091 12.5612C62.5985 11.8792 62.288 11.7539 61.8621 11.7539H53.3161C53.0358 11.7539 52.816 11.8847 52.7336 12.2076C52.6566 12.5222 52.4752 13.619 52.445 13.9949C52.4065 14.3707 52.7555 14.6017 53.1183 14.6017H59.3093L53.7091 22.7166C53.6706 22.7472 53.6321 22.7862 53.6019 22.8391C52.7913 24.0277 51.541 25.6952 50.0406 25.6952C49.1091 25.6952 47.9577 25.0188 47.9577 22.8084C47.9577 20.6426 48.8205 16.0688 49.4498 12.5055C49.5185 12.1213 49.3893 11.7455 48.7821 11.7455H47.268C46.919 11.7455 46.7211 11.9599 46.6689 12.2605C46.5782 12.8062 46.4876 13.3434 46.3969 13.8584C45.6467 12.4081 44.4486 11.5868 42.7147 11.5868C41.1071 11.5868 39.5408 12.1937 38.2603 13.4826C35.0617 16.723 35.669 22.0039 32.9101 24.7989C31.7203 26.0043 30.3711 25.6368 30.3711 23.265C30.3711 20.5563 31.3933 17.5387 32.5694 14.6741C32.7727 14.1675 32.5529 13.7443 32.3358 13.4158C32.0253 12.9565 31.9044 12.7087 31.3438 12.7087C30.4727 12.7087 29.0796 13.2683 26.2904 13.2683C25.6996 13.2683 25.1308 13.246 24.6224 13.207C24.6527 12.7839 24.6609 12.4999 24.6692 12.3942C24.6856 11.9961 24.5483 11.7427 24.1306 11.7427H22.7072C22.1905 11.7427 22.0641 11.9877 22.0037 12.3942C21.7619 14.1201 21.3002 20.4617 18.1621 23.6408C17.7994 24.0083 17.5796 24.1252 17.5796 24.1252C18.36 22.5746 18.7831 20.5396 18.7831 18.9278C18.7831 14.3902 16.1314 11.5813 12.8037 11.5813C11.787 11.5813 10.7125 11.9126 9.70405 12.5473C10.1739 9.78293 10.6054 7.19676 10.7565 6.32265C10.8856 5.58493 10.6191 5.20077 10.4295 4.89455C10.108 4.39067 9.82495 4.16797 9.40178 4.16797H4.49126C4.21098 4.16797 3.99939 4.3684 3.93069 4.68298C3.84825 5.05044 3.67239 6.01921 3.6504 6.46462C3.63392 6.85714 3.90046 7.0019 4.21098 7.0019H7.80249C7.22543 10.5708 6.13451 17.4885 5.80202 19.2229C5.38708 21.4332 3.83176 24.1419 1.2185 25.1023C0.891502 25.2248 0.756855 25.5254 0.877763 25.879C0.998671 26.2325 1.44658 27.154 1.58123 27.3906C1.71862 27.6356 2.02089 27.797 2.30942 27.6968C3.66689 27.2124 4.90895 26.4302 5.8927 25.4391C6.13451 25.1942 6.37083 24.9158 6.59616 24.6179C7.76952 27.2904 10.1575 28.2647 12.6058 28.2647C15.3702 28.2647 18.3572 27.2904 20.4484 25.1635C22.8968 22.6915 23.919 18.5937 24.3504 15.6902C24.9577 15.7737 25.6474 15.8433 26.3042 15.8433C27.9859 15.8433 29.3956 15.4814 29.3956 15.4814C29.3956 15.4814 27.7001 20.0413 27.7001 23.4042C27.7001 27.1957 29.489 28.2703 31.473 28.2703C33.5119 28.2703 34.9436 26.7197 35.9658 24.8016C36.2324 25.4002 36.6253 26.1156 37.1639 26.6585C38.0872 27.5938 39.2331 28.2703 40.8846 28.2703C42.7724 28.2703 44.3936 27.1651 45.545 25.4698C45.7484 26.1824 46.0671 26.7837 46.4985 27.2208C47.0811 27.811 48.15 28.2731 49.491 28.2731C51.7938 28.2731 53.1292 26.522 56.7125 26.522C57.1659 26.522 57.5754 26.5916 57.9463 26.7225C56.3031 27.7358 54.7423 28.827 53.786 29.793C50.832 32.7856 50.6946 36.7247 52.6346 38.6901C54.9841 41.0703 58.3338 39.8788 60.425 37.7603C62.8733 35.2799 63.585 30.592 62.1671 27.3822C63.8791 26.4692 65.3107 25.7927 65.6515 25.6312C66.7204 27.1122 68.4928 28.2731 71.4166 28.2731C73.5077 28.2731 75.6154 27.5214 77.2586 26.2631C77.5224 26.085 77.5746 25.7147 77.3933 25.4531Z" fill="#212123"/>
</g>
<defs>
<clipPath id="clip0_1783_28046">
<rect width="76.6667" height="40" fill="white" transform="translate(0.833984)"/>
</clipPath>
</defs>
</svg>
