<svg width="15" height="15" viewBox="0 0 15 15" fill="none" xmlns="http://www.w3.org/2000/svg">
<path d="M1.66165 12.3501C1.66973 13.1071 2.14412 13.7612 2.84863 14.0256C3.51479 14.2759 4.33438 14.0579 4.78858 13.5088C5.27104 12.9234 5.36794 12.0897 4.96622 11.4316C4.57056 10.7816 3.81154 10.4647 3.07069 10.61C2.25111 10.7695 1.66973 11.5305 1.66165 12.3501C1.65963 12.5621 1.84939 12.7639 2.06539 12.7538C2.28542 12.7437 2.4671 12.5762 2.46912 12.3501C2.46912 12.3178 2.47114 12.2835 2.47316 12.2512C2.47316 12.2371 2.47518 12.2229 2.4772 12.2088C2.48325 12.1281 2.47518 12.235 2.47316 12.233C2.45903 12.2249 2.51555 12.0513 2.52161 12.0352C2.52766 12.019 2.53978 11.9504 2.55391 11.9464C2.55794 11.9444 2.51757 12.0211 2.53978 11.9807C2.54785 11.9645 2.55593 11.9484 2.56198 11.9322C2.59226 11.8717 2.6286 11.8172 2.66493 11.7607C2.70329 11.7021 2.61043 11.8232 2.67503 11.7485C2.69521 11.7263 2.7154 11.7021 2.73761 11.6799C2.75981 11.6577 2.78202 11.6355 2.80422 11.6153C2.81432 11.6072 2.82441 11.5971 2.8345 11.5891C2.84863 11.577 2.90717 11.5487 2.85469 11.5709C2.81028 11.5891 2.84258 11.581 2.85671 11.5709C2.87084 11.5608 2.88497 11.5507 2.90112 11.5406C2.92332 11.5265 2.94553 11.5124 2.96975 11.5002C3.00003 11.4821 3.03233 11.4679 3.06463 11.4518C3.07472 11.4457 3.11712 11.4256 3.06463 11.4498C3.00407 11.478 3.08482 11.4437 3.09087 11.4417C3.14538 11.4215 3.20392 11.4054 3.26044 11.3933C3.27861 11.3892 3.29678 11.3872 3.31495 11.3832C3.35936 11.3731 3.27659 11.3872 3.27659 11.3872C3.31293 11.3872 3.35128 11.3791 3.38762 11.3791C3.45424 11.3771 3.51883 11.3791 3.58545 11.3852C3.66014 11.3912 3.50874 11.371 3.6016 11.3892C3.63793 11.3953 3.67225 11.4054 3.70859 11.4134C3.73887 11.4215 3.76915 11.4316 3.79943 11.4417C3.8075 11.4437 3.84788 11.4579 3.84989 11.4599C3.85191 11.4659 3.7752 11.4215 3.81558 11.4457C3.8721 11.4801 3.93468 11.5063 3.9912 11.5426C4.00533 11.5527 4.01946 11.5628 4.03561 11.5729C4.04974 11.583 4.08002 11.5911 4.03763 11.5729C3.99726 11.5568 4.0235 11.5608 4.03763 11.5749C4.05176 11.587 4.06387 11.5971 4.078 11.6093C4.12847 11.6537 4.17086 11.7021 4.21527 11.7506C4.27583 11.8172 4.18701 11.7041 4.22537 11.7627C4.24152 11.7889 4.25969 11.8131 4.27583 11.8394C4.29198 11.8656 4.30813 11.8939 4.32226 11.9201L4.34043 11.9565C4.37879 12.0291 4.34851 11.9504 4.33841 11.9464C4.36264 11.9544 4.38888 12.0998 4.39696 12.126C4.40301 12.1523 4.40907 12.1805 4.41512 12.2068C4.43127 12.2835 4.4131 12.1826 4.4131 12.1805C4.4232 12.1906 4.41916 12.2371 4.41916 12.2492C4.4232 12.3097 4.4232 12.3723 4.41916 12.4329C4.41714 12.451 4.41512 12.4692 4.41512 12.4894C4.4131 12.5298 4.3909 12.5237 4.41916 12.4652C4.40503 12.4955 4.40503 12.5399 4.39696 12.5722C4.38282 12.6287 4.36062 12.6832 4.34447 12.7397C4.32832 12.7902 4.38081 12.6711 4.35456 12.7175C4.34851 12.7276 4.34245 12.7417 4.33841 12.7538C4.32226 12.7861 4.30611 12.8164 4.28795 12.8467C4.2718 12.8729 4.25565 12.8992 4.23748 12.9254C4.18298 13.0082 4.27583 12.8851 4.2294 12.9396C4.18499 12.99 4.1426 13.0385 4.09214 13.0829C4.08406 13.091 4.03561 13.1434 4.02148 13.1434C4.02148 13.1434 4.10425 13.0869 4.03965 13.1273C4.02754 13.1354 4.01744 13.1414 4.00735 13.1495C3.95083 13.1858 3.89229 13.2161 3.83375 13.2464C3.77117 13.2787 3.90642 13.2222 3.81961 13.2525C3.78933 13.2625 3.76107 13.2726 3.73079 13.2827C3.70051 13.2908 3.67023 13.2989 3.63793 13.307C3.6238 13.309 3.61169 13.313 3.59756 13.315C3.50874 13.3352 3.66216 13.311 3.60967 13.315C3.54306 13.3211 3.47846 13.3251 3.41184 13.3231C3.37954 13.3231 3.34724 13.3191 3.31293 13.317C3.30082 13.317 3.25237 13.311 3.31091 13.317C3.37753 13.3231 3.29678 13.313 3.28265 13.311C3.21199 13.2969 3.14336 13.2747 3.07472 13.2504C3.06261 13.2464 3.02224 13.2262 3.07271 13.2504C3.13125 13.2787 3.06059 13.2444 3.04848 13.2383C3.01618 13.2222 2.9859 13.206 2.95562 13.1879C2.92534 13.1697 2.89708 13.1495 2.8668 13.1293C2.81835 13.099 2.87286 13.1455 2.88497 13.1455C2.87689 13.1455 2.85065 13.1172 2.8446 13.1111C2.79211 13.0647 2.74164 13.0163 2.69521 12.9618C2.69521 12.9618 2.6609 12.9274 2.6609 12.9214C2.6609 12.9295 2.70934 12.99 2.67705 12.9396C2.65686 12.9093 2.63667 12.881 2.6185 12.8507C2.59832 12.8164 2.58015 12.7801 2.56198 12.7458C2.51959 12.663 2.58217 12.8104 2.54987 12.7195C2.52565 12.6509 2.50546 12.5823 2.49133 12.5096C2.48931 12.4975 2.48931 12.4793 2.48325 12.4692C2.51353 12.5358 2.48931 12.5257 2.48527 12.4793C2.48123 12.4369 2.47922 12.3945 2.47922 12.3521C2.4772 12.1402 2.29552 11.9383 2.07548 11.9484C1.84737 11.9544 1.65762 12.124 1.66165 12.3501ZM14.7245 0.90625L12.2738 7.2247H2.85671L0.773438 0.90625H14.7245Z" fill="#E5E5E5"/>
</svg>
