<svg width="564" height="361" viewBox="0 0 564 361" fill="none" xmlns="http://www.w3.org/2000/svg">
<rect x="17" y="60.3008" width="413.987" height="242.092" rx="17.9994" fill="#EFF6FF"/>
<g filter="url(#filter0_d_1076_13225)">
<rect x="27.7988" y="27" width="456.285" height="265.492" rx="17.9994" fill="#262626"/>
</g>
<g clip-path="url(#clip0_1076_13225)">
<path d="M68.2577 78.6562H64.9297C64.3195 78.6562 63.8259 79.1555 63.8259 79.7656L63.8203 86.4217C63.8203 87.0318 64.3195 87.531 64.9297 87.531H73.8044C74.4146 87.531 74.9138 87.0318 74.9138 86.4217V80.8749C74.9138 80.2648 74.4146 79.7656 73.8044 79.7656H69.367L68.2577 78.6562Z" fill="#F5F5F5"/>
</g>
<g clip-path="url(#clip1_1076_13225)">
<path d="M97.2599 78.8758C96.9969 78.6062 96.6777 78.4714 96.3021 78.4714C95.9266 78.4714 95.6074 78.6062 95.3445 78.8758C95.0817 79.1454 94.9502 79.4728 94.9502 79.8581C94.9502 80.1084 95.0111 80.3407 95.1331 80.555C95.2552 80.7693 95.4194 80.9366 95.6261 81.0569C95.6261 81.3073 95.6062 81.5277 95.5664 81.7178C95.5264 81.908 95.4607 82.0752 95.3692 82.2198C95.2775 82.3642 95.1826 82.4869 95.0839 82.5881C94.9853 82.6892 94.8468 82.7843 94.6684 82.8734C94.4901 82.9625 94.3245 83.037 94.1719 83.0973C94.0194 83.1574 93.814 83.2284 93.5558 83.3103C93.0863 83.4596 92.7249 83.5967 92.4714 83.722V80.1324C92.6779 80.0121 92.8422 79.8448 92.9643 79.6305C93.0863 79.4162 93.1473 79.1839 93.1473 78.9335C93.1473 78.5484 93.0159 78.2209 92.753 77.9513C92.4902 77.6818 92.171 77.5469 91.7954 77.5469C91.4198 77.5469 91.1006 77.6817 90.8377 77.9513C90.5748 78.2209 90.4434 78.5484 90.4434 78.9335C90.4434 79.1839 90.5044 79.4162 90.6264 79.6305C90.7484 79.8448 90.9127 80.0121 91.1193 80.1324V86.0548C90.9127 86.1751 90.7484 86.3426 90.6264 86.5568C90.5044 86.7711 90.4434 87.0035 90.4434 87.2538C90.4434 87.6389 90.5747 87.9663 90.8377 88.2359C91.1006 88.5055 91.4198 88.6403 91.7954 88.6403C92.1709 88.6403 92.4902 88.5055 92.753 88.2359C93.0158 87.9663 93.1473 87.6389 93.1473 87.2538C93.1473 87.0035 93.0863 86.7711 92.9643 86.5568C92.8422 86.3426 92.6779 86.1751 92.4714 86.0548V85.8671C92.4714 85.5349 92.5688 85.2942 92.7636 85.145C92.9583 84.9955 93.3562 84.8247 93.9572 84.6321C94.591 84.425 95.0676 84.2299 95.3868 84.0469C96.4383 83.4356 96.9688 82.4388 96.9781 81.0569C97.1848 80.9366 97.349 80.7692 97.471 80.555C97.593 80.3407 97.6541 80.1084 97.6541 79.858C97.6542 79.4729 97.5227 79.1455 97.2599 78.8758ZM92.2743 87.745C92.1428 87.8799 91.9832 87.9473 91.7955 87.9473C91.6076 87.9473 91.448 87.8799 91.3166 87.745C91.1852 87.6103 91.1194 87.4465 91.1194 87.254C91.1194 87.0613 91.1851 86.8977 91.3166 86.7628C91.448 86.628 91.6076 86.5606 91.7955 86.5606C91.9832 86.5606 92.1428 86.6281 92.2743 86.7628C92.4058 86.8977 92.4715 87.0613 92.4715 87.254C92.4714 87.4465 92.4058 87.6103 92.2743 87.745ZM92.2743 79.4247C92.1428 79.5596 91.9832 79.6269 91.7955 79.6269C91.6076 79.6269 91.448 79.5596 91.3166 79.4247C91.1852 79.2899 91.1194 79.1263 91.1194 78.9336C91.1194 78.741 91.1851 78.5772 91.3166 78.4425C91.448 78.3077 91.6076 78.2403 91.7955 78.2403C91.9832 78.2403 92.1428 78.3078 92.2743 78.4425C92.4058 78.5772 92.4715 78.741 92.4715 78.9336C92.4714 79.1263 92.4058 79.29 92.2743 79.4247ZM96.781 80.3492C96.6495 80.484 96.49 80.5514 96.3022 80.5514C96.1143 80.5514 95.9547 80.484 95.8234 80.3492C95.692 80.2145 95.6262 80.0508 95.6262 79.8581C95.6262 79.6655 95.692 79.5019 95.8234 79.367C95.9548 79.2322 96.1143 79.1648 96.3022 79.1648C96.49 79.1648 96.6495 79.2322 96.781 79.367C96.9124 79.5017 96.9781 79.6655 96.9781 79.8581C96.9781 80.0507 96.9125 80.2145 96.781 80.3492Z" fill="#F5F5F5"/>
</g>
<g clip-path="url(#clip2_1076_13225)">
<path d="M120.119 84.203H119.681L119.525 84.0532C120.069 83.4209 120.396 82.6 120.396 81.7069C120.396 79.7157 118.782 78.1016 116.791 78.1016C114.8 78.1016 113.186 79.7157 113.186 81.7069C113.186 83.6982 114.8 85.3123 116.791 85.3123C117.684 85.3123 118.505 84.9851 119.137 84.4415L119.287 84.5968V85.035L122.06 87.8028L122.887 86.9763L120.119 84.203ZM116.791 84.203C115.41 84.203 114.295 83.0881 114.295 81.7069C114.295 80.3258 115.41 79.2109 116.791 79.2109C118.172 79.2109 119.287 80.3258 119.287 81.7069C119.287 83.0881 118.172 84.203 116.791 84.203Z" fill="#3B82F6"/>
</g>
<g clip-path="url(#clip3_1076_13225)">
<path d="M143.139 83.6484V88.0857H147.576V83.6484H143.139ZM137.592 88.0857H142.029V83.6484H137.592V88.0857ZM137.592 78.1016V82.539H142.029V78.1016H137.592ZM145.169 77.375L142.029 80.5089L145.169 83.6484L148.308 80.5089L145.169 77.375Z" fill="#F5F5F5"/>
</g>
<g clip-path="url(#clip4_1076_13225)">
<path d="M170.95 83.6158C170.973 83.4494 170.984 83.2774 170.984 83.0944C170.984 82.9169 170.973 82.7394 170.945 82.573L172.071 81.6966C172.171 81.619 172.198 81.4692 172.137 81.3583L171.072 79.5168C171.006 79.3947 170.867 79.3559 170.745 79.3947L169.42 79.9272C169.142 79.7164 168.848 79.5389 168.521 79.4058L168.321 77.9969C168.299 77.8638 168.188 77.7695 168.055 77.7695H165.925C165.792 77.7695 165.687 77.8638 165.664 77.9969L165.465 79.4058C165.137 79.5389 164.838 79.722 164.566 79.9272L163.24 79.3947C163.118 79.3503 162.98 79.3947 162.913 79.5168L161.854 81.3583C161.787 81.4747 161.809 81.619 161.92 81.6966L163.046 82.573C163.019 82.7394 162.996 82.9224 162.996 83.0944C162.996 83.2663 163.008 83.4494 163.035 83.6158L161.909 84.4922C161.809 84.5698 161.782 84.7196 161.843 84.8305L162.908 86.672C162.974 86.7941 163.113 86.8329 163.235 86.7941L164.561 86.2616C164.838 86.4723 165.132 86.6498 165.459 86.783L165.659 88.1918C165.687 88.325 165.792 88.4193 165.925 88.4193H168.055C168.188 88.4193 168.299 88.325 168.316 88.1918L168.515 86.783C168.843 86.6498 169.142 86.4723 169.414 86.2616L170.74 86.7941C170.862 86.8384 171 86.7941 171.067 86.672L172.132 84.8305C172.198 84.7085 172.171 84.5698 172.065 84.4922L170.95 83.6158ZM166.99 85.0912C165.892 85.0912 164.993 84.1926 164.993 83.0944C164.993 81.9961 165.892 81.0976 166.99 81.0976C168.088 81.0976 168.987 81.9961 168.987 83.0944C168.987 84.1926 168.088 85.0912 166.99 85.0912Z" fill="#F5F5F5"/>
</g>
<mask id="path-8-inside-1_1076_13225" fill="white">
<path d="M27.7988 44.9994C27.7988 35.0586 35.8574 27 45.7983 27H466.085C476.026 27 484.084 35.0586 484.084 44.9994V60.2989H27.7988V44.9994Z"/>
</mask>
<path d="M27.7988 44.9994C27.7988 35.0586 35.8574 27 45.7983 27H466.085C476.026 27 484.084 35.0586 484.084 44.9994V60.2989H27.7988V44.9994Z" fill="#404040"/>
<path d="M27.7988 27H484.084H27.7988ZM484.084 61.1989H27.7988V59.399H484.084V61.1989ZM27.7988 60.2989V27V60.2989ZM484.084 27V60.2989V27Z" fill="#A3A3A3" mask="url(#path-8-inside-1_1076_13225)"/>
<path fill-rule="evenodd" clip-rule="evenodd" d="M53.8983 48.5974C56.3835 48.5974 58.3982 46.5827 58.3982 44.0975C58.3982 41.6123 56.3835 39.5977 53.8983 39.5977C51.4131 39.5977 49.3984 41.6123 49.3984 44.0975C49.3984 46.5827 51.4131 48.5974 53.8983 48.5974Z" fill="white"/>
<path fill-rule="evenodd" clip-rule="evenodd" d="M68.2987 48.5974C70.7839 48.5974 72.7985 46.5827 72.7985 44.0975C72.7985 41.6123 70.7839 39.5977 68.2987 39.5977C65.8135 39.5977 63.7988 41.6123 63.7988 44.0975C63.7988 46.5827 65.8135 48.5974 68.2987 48.5974Z" fill="white"/>
<path fill-rule="evenodd" clip-rule="evenodd" d="M82.6971 48.5974C85.1823 48.5974 87.197 46.5827 87.197 44.0975C87.197 41.6123 85.1823 39.5977 82.6971 39.5977C80.2119 39.5977 78.1973 41.6123 78.1973 44.0975C78.1973 46.5827 80.2119 48.5974 82.6971 48.5974Z" fill="white"/>
<rect x="49.8359" y="117.211" width="66.4701" height="9.06411" rx="4.53205" fill="#9CA3AF"/>
<rect x="49.8359" y="202.039" width="66.4701" height="9.06411" rx="4.53205" fill="#9CA3AF"/>
<rect x="49.8359" y="159.512" width="66.4701" height="9.06411" rx="4.53205" fill="#9CA3AF"/>
<rect x="49.8359" y="244.336" width="66.4701" height="9.06411" rx="4.53205" fill="#A3A3A3"/>
<rect x="122.348" y="159.512" width="33.2351" height="9.06411" rx="4.53205" fill="#9CA3AF"/>
<rect x="122.348" y="244.336" width="33.2351" height="9.06411" rx="4.53205" fill="#A3A3A3"/>
<rect x="49.8359" y="138.359" width="33.2351" height="9.06411" rx="4.53205" fill="#16A34A"/>
<rect x="49.8359" y="223.188" width="33.2351" height="9.06411" rx="4.53205" fill="#16A34A"/>
<rect x="89.1113" y="138.359" width="66.4701" height="9.06411" rx="4.53205" fill="#60A5FA"/>
<rect x="89.1113" y="223.188" width="66.4701" height="9.06411" rx="4.53205" fill="#60A5FA"/>
<rect x="161.625" y="138.359" width="66.4701" height="9.06411" rx="4.53205" fill="#A3A3A3"/>
<rect x="233.893" y="138.359" width="66.4701" height="9.06411" rx="4.53205" fill="#A3A3A3"/>
<rect x="161.625" y="223.188" width="66.4701" height="9.06411" rx="4.53205" fill="#9CA3AF"/>
<rect x="49.8359" y="180.66" width="33.2351" height="9.06411" rx="4.53205" fill="#16A34A"/>
<rect x="49.8359" y="265.484" width="33.2351" height="9.06411" rx="4.53205" fill="#16A34A"/>
<rect x="89.1113" y="180.66" width="36.2564" height="9.06411" rx="4.53205" fill="#60A5FA"/>
<rect x="89.1113" y="265.484" width="36.2564" height="9.06411" rx="4.53205" fill="#60A5FA"/>
<rect x="131.412" y="180.66" width="66.4701" height="9.06411" rx="4.53205" fill="#A3A3A3"/>
<rect x="131.412" y="265.484" width="66.4701" height="9.06411" rx="4.53205" fill="#9CA3AF"/>
<path d="M552.376 211.492H425.411C419.544 211.492 414.787 216.249 414.787 222.116V349.081C414.787 354.948 419.544 359.705 425.411 359.705H552.376C558.243 359.705 563 354.948 563 349.081V222.116C563 216.249 558.243 211.492 552.376 211.492Z" fill="white" stroke="#E4E6E8" stroke-width="2.42972"/>
<path d="M463.08 276.052L459.254 272.227L441.373 290.108L434.345 283.08L430.52 286.906L441.373 297.759L463.08 276.052Z" fill="#6ECB64"/>
<path opacity="0.5" d="M548.543 237.004H472.982C472.377 237.004 471.887 237.494 471.887 238.099V260.206C471.887 260.811 472.377 261.301 472.982 261.301H548.543C549.147 261.301 549.638 260.811 549.638 260.206V238.099C549.638 237.494 549.147 237.004 548.543 237.004Z" fill="url(#paint0_linear_1076_13225)"/>
<path opacity="0.5" d="M548.543 273.449H472.982C472.377 273.449 471.887 273.939 471.887 274.544V296.651C471.887 297.256 472.377 297.746 472.982 297.746H548.543C549.147 297.746 549.638 297.256 549.638 296.651V274.544C549.638 273.939 549.147 273.449 548.543 273.449Z" fill="url(#paint1_linear_1076_13225)"/>
<path opacity="0.5" d="M533.964 309.895H472.982C472.377 309.895 471.887 310.385 471.887 310.989V333.097C471.887 333.701 472.377 334.192 472.982 334.192H533.964C534.569 334.192 535.059 333.701 535.059 333.097V310.989C535.059 310.385 534.569 309.895 533.964 309.895Z" fill="url(#paint2_linear_1076_13225)"/>
<path d="M464.598 309.895H428.152L447.59 329.332L464.598 309.895Z" fill="#E4E6E8"/>
<path d="M428.152 261.301H464.598L445.16 241.863L428.152 261.301Z" fill="#E4E6E8"/>
<defs>
<filter id="filter0_d_1076_13225" x="0.79969" y="0.900833" width="510.283" height="319.49" filterUnits="userSpaceOnUse" color-interpolation-filters="sRGB">
<feFlood flood-opacity="0" result="BackgroundImageFix"/>
<feColorMatrix in="SourceAlpha" type="matrix" values="0 0 0 0 0 0 0 0 0 0 0 0 0 0 0 0 0 0 127 0" result="hardAlpha"/>
<feOffset dy="0.899971"/>
<feGaussianBlur stdDeviation="13.4996"/>
<feComposite in2="hardAlpha" operator="out"/>
<feColorMatrix type="matrix" values="0 0 0 0 0 0 0 0 0 0 0 0 0 0 0 0 0 0 0.15 0"/>
<feBlend mode="normal" in2="BackgroundImageFix" result="effect1_dropShadow_1076_13225"/>
<feBlend mode="normal" in="SourceGraphic" in2="effect1_dropShadow_1076_13225" result="shape"/>
</filter>
<linearGradient id="paint0_linear_1076_13225" x1="471.634" y1="248.646" x2="579.948" y2="248.646" gradientUnits="userSpaceOnUse">
<stop stop-color="#D6D9DC"/>
<stop offset="1" stop-color="#EFF0F1"/>
</linearGradient>
<linearGradient id="paint1_linear_1076_13225" x1="471.634" y1="285.091" x2="579.948" y2="285.091" gradientUnits="userSpaceOnUse">
<stop stop-color="#D6D9DC"/>
<stop offset="1" stop-color="#EFF0F1"/>
</linearGradient>
<linearGradient id="paint2_linear_1076_13225" x1="471.681" y1="321.537" x2="559.687" y2="321.537" gradientUnits="userSpaceOnUse">
<stop stop-color="#D6D9DC"/>
<stop offset="1" stop-color="#EFF0F1"/>
</linearGradient>
<clipPath id="clip0_1076_13225">
<rect width="13.3122" height="13.3122" fill="white" transform="translate(62.7109 76.4375)"/>
</clipPath>
<clipPath id="clip1_1076_13225">
<rect width="13.3122" height="13.3122" fill="white" transform="translate(87.1152 76.4375)"/>
</clipPath>
<clipPath id="clip2_1076_13225">
<rect width="13.3122" height="13.3122" fill="white" transform="translate(111.521 76.4375)"/>
</clipPath>
<clipPath id="clip3_1076_13225">
<rect width="13.3122" height="13.3122" fill="white" transform="translate(135.928 76.4375)"/>
</clipPath>
<clipPath id="clip4_1076_13225">
<rect width="13.3122" height="13.3122" fill="white" transform="translate(160.334 76.4375)"/>
</clipPath>
</defs>
</svg>
