<svg width="95" height="40" viewBox="0 0 95 40" fill="none" xmlns="http://www.w3.org/2000/svg">
<g clip-path="url(#clip0_1783_28043)">
<path d="M40.8646 21.3767C40.8646 25.8128 37.3943 29.0816 33.1354 29.0816C28.8766 29.0816 25.4062 25.8128 25.4062 21.3767C25.4062 16.9094 28.8766 13.6719 33.1354 13.6719C37.3943 13.6719 40.8646 16.9094 40.8646 21.3767ZM37.4811 21.3767C37.4811 18.6047 35.4698 16.708 33.1354 16.708C30.801 16.708 28.7897 18.6047 28.7897 21.3767C28.7897 24.121 30.801 26.0455 33.1354 26.0455C35.4698 26.0455 37.4811 24.1176 37.4811 21.3767Z" fill="#EA4335"/>
<path d="M57.5384 21.3767C57.5384 25.8128 54.0681 29.0816 49.8093 29.0816C45.5504 29.0816 42.0801 25.8128 42.0801 21.3767C42.0801 16.9129 45.5504 13.6719 49.8093 13.6719C54.0681 13.6719 57.5384 16.9094 57.5384 21.3767ZM54.155 21.3767C54.155 18.6047 52.1437 16.708 49.8093 16.708C47.4749 16.708 45.4636 18.6047 45.4636 21.3767C45.4636 24.121 47.4749 26.0455 49.8093 26.0455C52.1437 26.0455 54.155 24.1176 54.155 21.3767Z" fill="#FBBC05"/>
<path d="M73.5186 14.1374V27.97C73.5186 33.6601 70.1629 35.984 66.1959 35.984C62.4615 35.984 60.214 33.4864 59.3664 31.4438L62.3122 30.2175C62.8367 31.4716 64.122 32.9514 66.1924 32.9514C68.7317 32.9514 70.3054 31.3847 70.3054 28.4355V27.3273H70.1872C69.43 28.2618 67.971 29.0781 66.1299 29.0781C62.2774 29.0781 58.748 25.7225 58.748 21.4045C58.748 17.0553 62.2774 13.6719 66.1299 13.6719C67.9675 13.6719 69.4265 14.4882 70.1872 15.3949H70.3054V14.1408H73.5186V14.1374ZM70.545 21.4045C70.545 18.6915 68.7352 16.708 66.4321 16.708C64.0977 16.708 62.1419 18.6915 62.1419 21.4045C62.1419 24.0898 64.0977 26.0455 66.4321 26.0455C68.7352 26.0455 70.545 24.0898 70.545 21.4045Z" fill="#4285F4"/>
<path d="M78.8157 6.02734V28.607H75.5156V6.02734H78.8157Z" fill="#34A853"/>
<path d="M91.6755 23.9122L94.3017 25.663C93.4541 26.917 91.4115 29.0777 87.8821 29.0777C83.5052 29.0777 80.2363 25.6942 80.2363 21.3728C80.2363 16.7909 83.5329 13.668 87.5035 13.668C91.5018 13.668 93.4576 16.85 94.0967 18.5695L94.4476 19.4449L84.1478 23.7107C84.9364 25.2565 86.1626 26.0451 87.8821 26.0451C89.6051 26.0451 90.8001 25.1975 91.6755 23.9122ZM83.592 21.1401L90.4771 18.2812C90.0984 17.3189 88.959 16.6485 87.6181 16.6485C85.8986 16.6485 83.5052 18.1665 83.592 21.1401Z" fill="#EA4335"/>
<path d="M12.9132 19.3701V16.1013H23.9286C24.0363 16.671 24.0919 17.3449 24.0919 18.0744C24.0919 20.5269 23.4215 23.5595 21.2608 25.7202C19.1591 27.9087 16.4739 29.0759 12.9167 29.0759C6.32346 29.0759 0.779297 23.7054 0.779297 17.1122C0.779297 10.5189 6.32346 5.14844 12.9167 5.14844C16.5642 5.14844 19.1626 6.57964 21.1149 8.44506L18.8083 10.7517C17.4083 9.43857 15.5116 8.41727 12.9132 8.41727C8.09857 8.41727 4.33298 12.2975 4.33298 17.1122C4.33298 21.9268 8.09857 25.8071 12.9132 25.8071C16.0362 25.8071 17.8148 24.553 18.9542 23.4136C19.8782 22.4896 20.4861 21.1696 20.7258 19.3667L12.9132 19.3701Z" fill="#4285F4"/>
</g>
<defs>
<clipPath id="clip0_1783_28043">
<rect width="94.1667" height="40" fill="white" transform="translate(0.666016)"/>
</clipPath>
</defs>
</svg>
