<svg width="63" height="115" viewBox="0 0 63 115" fill="none" xmlns="http://www.w3.org/2000/svg">
<path d="M59.9051 0.00583671C49.5407 1.29334 39.7556 5.60648 31.9018 12.4946C23.9193 19.4471 18.3187 28.9747 15.8724 39.2103C13.6193 48.6735 13.4905 60.1967 19.3487 68.5011C22.1812 72.4923 26.2368 75.3892 31.0006 76.6123C35.5712 77.7711 40.5281 77.5136 44.97 75.9042C54.3044 72.4923 60.4845 63.4154 62.0295 53.8235C62.802 48.931 62.7376 43.5878 60.2913 39.146C57.6519 34.3178 52.3088 32.2578 47.2232 31.2278C37.6312 29.2966 27.3312 31.0991 18.8981 36.056C10.3362 41.0772 4.22051 49.3816 1.51675 58.9092C-1.12263 68.3079 -0.350131 78.4792 4.09176 87.1699C8.34053 95.5387 15.7437 102.234 24.37 105.903C26.43 106.804 28.6187 107.448 30.8075 107.963C32.8031 108.414 33.7044 105.324 31.6444 104.873C23.2756 103.071 15.6793 98.1137 10.4649 91.3543C5.05739 84.3374 2.54675 75.6467 3.31925 66.8273C4.02738 58.0079 8.01864 49.446 14.5205 43.3947C21.0224 37.3435 29.9062 33.9316 38.79 33.7384C43.2319 33.6741 47.9313 34.3178 51.9869 36.056C54.1113 37.0216 56.0426 38.3734 57.2657 40.3691C58.3601 42.236 58.9394 44.3603 59.1326 46.5491C59.9051 55.2398 56.2357 64.7673 49.2188 70.0461C42.5238 75.0673 32.5456 75.7755 25.7218 70.6254C18.3831 65.0892 17.0956 54.596 17.9968 46.0985C18.9624 36.4422 23.0181 27.0434 29.3268 19.7046C35.5712 12.4302 44.0044 7.15147 53.2744 4.57646C55.4632 3.99709 57.7163 3.48209 59.9694 3.22459C60.8063 3.09585 61.5788 2.58084 61.5788 1.61521C61.5144 0.842712 60.7419 -0.0585402 59.9051 0.00583671Z" fill="#C026D3"/>
<path d="M26.6871 113.82C28.1677 112.918 29.6484 111.953 31.0003 110.987C31.7728 110.472 32.4809 109.893 33.189 109.313C33.8971 108.798 34.5409 108.219 34.8628 107.382C35.6353 105.451 33.7684 103.713 32.674 102.296C31.5796 100.88 30.4209 99.5926 29.1977 98.3051C27.7171 96.8244 25.464 99.0776 26.9446 100.558C27.9746 101.588 28.9402 102.683 29.8415 103.777C30.2921 104.292 30.6784 104.871 31.129 105.386C31.3221 105.644 31.5796 105.966 31.7728 106.223C31.8371 106.288 31.9015 106.416 31.9659 106.481C31.9659 106.416 31.9659 106.352 31.9015 106.288C31.9015 106.159 31.9659 106.094 31.9659 105.966C31.9015 106.094 31.8371 106.159 31.9015 106.094C30.9359 106.738 29.8415 107.704 28.8115 108.476C27.5884 109.313 26.3652 110.15 25.0777 110.923C23.3396 112.146 24.949 114.914 26.6871 113.82Z" fill="#C026D3"/>
</svg>
