<svg width="149" height="40" viewBox="0 0 149 40" fill="none" xmlns="http://www.w3.org/2000/svg">
<g clip-path="url(#clip0_1783_28042)">
<path d="M5.70645 18.3626C5.65262 18.2921 5.58152 18.2368 5.50004 18.2019C5.41856 18.1669 5.32945 18.1536 5.24131 18.1632C5.15318 18.1727 5.069 18.2049 4.99693 18.2565C4.92485 18.3081 4.86731 18.3775 4.82986 18.4578L0.388069 27.3386C0.347605 27.4196 0.3285 27.5095 0.332568 27.5999C0.336636 27.6903 0.363742 27.7782 0.411313 27.8551C0.458883 27.9321 0.525339 27.9956 0.604371 28.0397C0.683402 28.0838 0.772386 28.1069 0.862875 28.1069H7.04784C7.1469 28.1092 7.2445 28.0827 7.32878 28.0306C7.41307 27.9785 7.48041 27.9031 7.52265 27.8134C8.85682 25.0565 8.04826 20.8646 5.70645 18.3626Z" fill="url(#paint0_linear_1783_28042)"/>
<path d="M8.96434 10.2849C7.85757 11.9879 7.21259 13.9493 7.0927 15.9768C6.9728 18.0043 7.38211 20.0281 8.28045 21.8496L11.2623 27.8133C11.3064 27.9015 11.3741 27.9756 11.458 28.0275C11.5419 28.0793 11.6385 28.1068 11.7371 28.1068H17.921C18.0114 28.1068 18.1004 28.0836 18.1795 28.0395C18.2585 27.9955 18.3249 27.9319 18.3725 27.855C18.4201 27.778 18.4472 27.6901 18.4513 27.5997C18.4553 27.5093 18.4362 27.4194 18.3958 27.3385C18.3958 27.3385 10.0764 10.6978 9.8673 10.2816C9.82597 10.1968 9.76158 10.1255 9.68154 10.0757C9.6015 10.0259 9.50905 9.99966 9.41478 10C9.32051 10.0004 9.22825 10.0273 9.14858 10.0777C9.06891 10.128 9.00505 10.1999 8.96434 10.2849Z" fill="#2684FF"/>
<path d="M81.4977 17.4033C81.4977 19.6024 82.5179 21.3484 86.5082 22.1192C88.8889 22.619 89.3875 23.0033 89.3875 23.7968C89.3875 24.5676 88.8877 25.0666 87.2109 25.0666C85.1843 25.0301 83.1982 24.4927 81.4297 23.5022V27.0841C82.6314 27.6736 84.2183 28.3311 87.1657 28.3311C91.3373 28.3311 92.9924 26.4707 92.9924 23.706L81.4977 17.4033ZM92.9924 23.706C92.9924 21.0988 91.6094 19.8743 87.7099 19.0357C85.5561 18.5595 85.0346 18.0836 85.0346 17.4033C85.0346 16.5426 85.8054 16.1791 87.2337 16.1791C88.9569 16.1791 90.6573 16.7006 92.2669 17.4261V14.0025C90.7235 13.3 89.0425 12.9514 87.347 12.9824C83.4927 12.9824 81.4977 14.66 81.4977 17.4033" fill="#0052CC"/>
<path d="M135.092 13.2109V28.1065H138.266V16.7478L139.604 19.763L144.093 28.1065H148.083V13.2109H144.909V22.8239L143.707 20.0351L140.102 13.2109H135.092Z" fill="#0052CC"/>
<path d="M114.904 13.2109H111.436V28.1065H114.904V13.2109Z" fill="#0052CC"/>
<path d="M107.434 23.706C107.434 21.0988 106.051 19.8743 102.151 19.0357C99.9975 18.5595 99.476 18.0836 99.476 17.4033C99.476 16.5426 100.247 16.1791 101.675 16.1791C103.398 16.1791 105.099 16.7006 106.708 17.4261V14.0025C105.165 13.3 103.484 12.9514 101.788 12.9824C97.9341 12.9824 95.9391 14.66 95.9391 17.4033C95.9391 19.6024 96.9593 21.3484 100.95 22.1192C103.33 22.619 103.829 23.0033 103.829 23.7968C103.829 24.5676 103.329 25.0666 101.652 25.0666C99.6257 25.0301 97.6396 24.4927 95.8711 23.5022V27.0841C97.0728 27.6736 98.6597 28.3311 101.607 28.3311C105.779 28.3311 107.434 26.4707 107.434 23.706Z" fill="#0052CC"/>
<path d="M54.5508 13.2109V28.1065H61.6806L62.8032 24.887H58.0421V13.2109H54.5508Z" fill="#0052CC"/>
<path d="M40.4648 13.2109V16.4302H44.3191V28.1065H47.8104V16.4302H51.9368V13.2109H40.4648Z" fill="#0052CC"/>
<path d="M35.4027 13.2109H30.8271L25.6328 28.1065H29.5995L30.3359 25.5978C32.1494 26.1303 34.0778 26.1303 35.8914 25.5978L36.6278 28.1065H40.5953L35.4027 13.2109ZM33.1147 22.9117C32.4686 22.9116 31.8258 22.8192 31.2058 22.6371L33.1147 16.1367L35.0237 22.6393C34.4036 22.8206 33.7608 22.9124 33.1147 22.9117Z" fill="#0052CC"/>
<path d="M73.9727 13.2109H69.3974L64.2031 28.1065H68.1707L68.907 25.5978C70.7206 26.1303 72.649 26.1303 74.4625 25.5978L75.1989 28.1065H79.1664L73.9727 13.2109ZM71.6851 22.9117C71.0389 22.9116 70.3961 22.8192 69.7761 22.6371L71.6851 16.1367L73.594 22.6393C72.9739 22.8206 72.3311 22.9124 71.6851 22.9117Z" fill="#0052CC"/>
<path d="M127.404 13.2109H122.829L117.635 28.1065H121.602L122.339 25.5978C124.152 26.1303 126.081 26.1303 127.894 25.5978L128.631 28.1065H132.598L127.404 13.2109ZM125.115 22.9117C124.469 22.9116 123.826 22.8192 123.206 22.6371L125.115 16.1367L127.024 22.6393C126.404 22.8206 125.761 22.9124 125.115 22.9117Z" fill="#0052CC"/>
</g>
<defs>
<linearGradient id="paint0_linear_1783_28042" x1="8.14073" y1="19.7331" x2="3.4532" y2="27.8523" gradientUnits="userSpaceOnUse">
<stop stop-color="#0052CC"/>
<stop offset="0.923" stop-color="#2684FF"/>
</linearGradient>
<clipPath id="clip0_1783_28042">
<rect width="148.333" height="40" fill="white" transform="translate(0.333984)"/>
</clipPath>
</defs>
</svg>
