<svg width="77" height="40" viewBox="0 0 77 40" fill="none" xmlns="http://www.w3.org/2000/svg">
<g clip-path="url(#clip0_1783_28569)">
<path d="M68.0559 15.5204C70.0647 13.4854 72.2905 14.0839 72.2905 16.0577C72.2905 17.9841 70.0097 20.0636 67.259 21.6754C66.9925 21.8285 66.6765 22.0067 66.3577 22.1654C66.2506 21.681 66.1901 21.1437 66.1901 20.5452C66.1901 18.8999 66.8798 16.7119 68.0559 15.5204ZM57.3418 36.2933C54.6736 38.9963 51.2635 35.55 55.2424 31.519C56.1438 30.6059 57.6221 29.6009 59.161 28.6851C60.0375 30.8899 59.3423 34.2583 57.3418 36.2933ZM40.346 25.4698C38.2988 25.4698 36.9743 22.9838 37.3838 19.9133C37.785 16.8427 39.7717 14.3567 41.8162 14.3567C43.7095 14.3567 44.9845 16.4919 44.8388 19.2479C44.7866 19.646 44.7399 20.0302 44.7015 20.4004C44.1629 23.2371 42.2778 25.4698 40.346 25.4698ZM13.3231 24.4481C12.6553 25.1246 11.8392 25.4837 11.0121 25.4837C10.2399 25.4837 9.57219 25.1301 9.01986 24.5706C7.12655 22.6525 7.29143 17.9451 9.72332 15.4731C10.413 14.7743 11.2457 14.3679 12.103 14.3679C12.8697 14.3679 13.5429 14.7131 14.0952 15.2726C15.8786 17.0793 15.9831 21.7534 13.3231 24.4481ZM76.6706 25.4531C76.6706 25.4531 75.9122 24.3785 75.6786 24.0723C75.5192 23.8718 75.3214 23.6269 74.7993 23.9888C73.6479 24.771 72.3509 25.4865 70.7516 25.4865C69.5316 25.4865 68.4626 25.1719 67.6685 24.4899C68.001 24.3367 68.35 24.1669 68.7072 23.9748C70.595 22.9393 72.1695 21.6253 72.928 20.857C76.6019 17.135 75.4506 11.5841 70.9742 11.5841C66.7452 11.5841 63.4037 15.7598 63.4037 20.3976C63.4037 21.0964 63.4862 22.093 63.7829 23.1536C63.5329 23.2761 61.8594 24.0973 59.8507 25.2192C57.9629 23.7828 55.0171 24.4286 55.0171 24.4286C57.7513 20.4979 61.8676 14.3567 62.2166 13.8501C62.4667 13.4882 62.4282 13.1291 62.1864 12.5612C61.8759 11.8792 61.5654 11.7539 61.1394 11.7539H52.5935C52.3132 11.7539 52.0933 11.8847 52.0109 12.2076C51.934 12.5222 51.7526 13.619 51.7224 13.9949C51.6839 14.3707 52.0329 14.6017 52.3956 14.6017H58.5866L52.9864 22.7166C52.9479 22.7472 52.9095 22.7862 52.8792 22.8391C52.0686 24.0277 50.8183 25.6952 49.3179 25.6952C48.3864 25.6952 47.235 25.0188 47.235 22.8084C47.235 20.6426 48.0979 16.0688 48.7271 12.5055C48.7958 12.1213 48.6667 11.7455 48.0594 11.7455H46.5453C46.1963 11.7455 45.9985 11.9599 45.9463 12.2605C45.8556 12.8062 45.7649 13.3434 45.6742 13.8584C44.924 12.4081 43.7259 11.5868 41.992 11.5868C40.3845 11.5868 38.8182 12.1937 37.5377 13.4826C34.3391 16.723 34.9464 22.0039 32.1875 24.7989C30.9976 26.0043 29.6484 25.6368 29.6484 23.265C29.6484 20.5563 30.6706 17.5387 31.8467 14.6741C32.0501 14.1675 31.8303 13.7443 31.6132 13.4158C31.3027 12.9565 31.1817 12.7087 30.6212 12.7087C29.7501 12.7087 28.3569 13.2683 25.5678 13.2683C24.977 13.2683 24.4082 13.246 23.8998 13.207C23.93 12.7839 23.9383 12.4999 23.9465 12.3942C23.963 11.9961 23.8256 11.7427 23.4079 11.7427H21.9845C21.4679 11.7427 21.3415 11.9877 21.281 12.3942C21.0392 14.1201 20.5776 20.4617 17.4395 23.6408C17.0767 24.0083 16.8569 24.1252 16.8569 24.1252C17.6373 22.5746 18.0605 20.5396 18.0605 18.9278C18.0605 14.3902 15.4087 11.5813 12.081 11.5813C11.0643 11.5813 9.98987 11.9126 8.98139 12.5473C9.45128 9.78293 9.8827 7.19676 10.0338 6.32265C10.163 5.58493 9.89644 5.20077 9.70684 4.89455C9.38533 4.39067 9.1023 4.16797 8.67912 4.16797H3.76861C3.48832 4.16797 3.27673 4.3684 3.20803 4.68298C3.1256 5.05044 2.94973 6.01921 2.92775 6.46462C2.91126 6.85714 3.17781 7.0019 3.48832 7.0019H7.07984C6.50278 10.5708 5.41186 17.4885 5.07936 19.2229C4.66443 21.4332 3.10911 24.1419 0.495847 25.1023C0.168846 25.2248 0.0341986 25.5254 0.155107 25.879C0.276015 26.2325 0.723924 27.154 0.858571 27.3906C0.995967 27.6356 1.29824 27.797 1.58677 27.6968C2.94423 27.2124 4.18629 26.4302 5.17004 25.4391C5.41186 25.1942 5.64818 24.9158 5.87351 24.6179C7.04686 27.2904 9.4348 28.2647 11.8832 28.2647C14.6476 28.2647 17.6346 27.2904 19.7257 25.1635C22.1741 22.6915 23.1963 18.5937 23.6277 15.6902C24.235 15.7737 24.9248 15.8433 25.5815 15.8433C27.2632 15.8433 28.6729 15.4814 28.6729 15.4814C28.6729 15.4814 26.9774 20.0413 26.9774 23.4042C26.9774 27.1957 28.7663 28.2703 30.7503 28.2703C32.7893 28.2703 34.2209 26.7197 35.2432 24.8016C35.5097 25.4002 35.9027 26.1156 36.4412 26.6585C37.3645 27.5938 38.5104 28.2703 40.1619 28.2703C42.0497 28.2703 43.671 27.1651 44.8224 25.4698C45.0257 26.1824 45.3445 26.7837 45.7759 27.2208C46.3584 27.811 47.4274 28.2731 48.7684 28.2731C51.0711 28.2731 52.4066 26.522 55.9899 26.522C56.4433 26.522 56.8527 26.5916 57.2237 26.7225C55.5804 27.7358 54.0196 28.827 53.0633 29.793C50.1093 32.7856 49.9719 36.7247 51.912 38.6901C54.2614 41.0703 57.6111 39.8788 59.7023 37.7603C62.1507 35.2799 62.8624 30.592 61.4445 27.3822C63.1564 26.4692 64.5881 25.7927 64.9288 25.6312C65.9977 27.1122 67.7701 28.2731 70.6939 28.2731C72.7851 28.2731 74.8927 27.5214 76.536 26.2631C76.7998 26.085 76.852 25.7147 76.6706 25.4531Z" fill="#212123"/>
</g>
<defs>
<clipPath id="clip0_1783_28569">
<rect width="76.6667" height="40" fill="white" transform="translate(0.111328)"/>
</clipPath>
</defs>
</svg>
