<svg width="126" height="40" viewBox="0 0 126 40" fill="none" xmlns="http://www.w3.org/2000/svg">
<g clip-path="url(#clip0_1783_28573)">
<path fill-rule="evenodd" clip-rule="evenodd" d="M36.89 20V28.5407L36.8879 28.9821C36.8578 32.0556 36.5058 33.2359 35.8697 34.4255C35.2039 35.6703 34.2269 36.6473 32.9821 37.313L32.816 37.4C31.6232 38.0096 30.3511 38.3333 27.0974 38.3333H18.5566V20H36.89Z" fill="url(#paint0_linear_1783_28573)"/>
<path fill-rule="evenodd" clip-rule="evenodd" d="M32.9821 2.68827C34.2269 3.35402 35.2039 4.33099 35.8697 5.57585L35.9566 5.74196C36.5662 6.93475 36.89 8.20682 36.89 11.4606V20.0013H18.5566V1.66797H27.0974C30.5025 1.66797 31.7372 2.02251 32.9821 2.68827Z" fill="url(#paint1_linear_1783_28573)"/>
<path fill-rule="evenodd" clip-rule="evenodd" d="M18.556 1.66797V38.3346H10.0153L9.57393 38.3325C6.50039 38.3025 5.32007 37.9505 4.13054 37.3143C2.88568 36.6486 1.90871 35.6716 1.24295 34.4268L1.15604 34.2606C0.546384 33.0679 0.222656 31.7958 0.222656 28.542V11.4606C0.222656 8.05548 0.577199 6.82071 1.24295 5.57585C1.90871 4.33099 2.88568 3.35402 4.13054 2.68827L4.29665 2.60135C5.48944 1.9917 6.76151 1.66797 10.0153 1.66797H18.556Z" fill="url(#paint2_linear_1783_28573)"/>
<path fill-rule="evenodd" clip-rule="evenodd" d="M62.7473 15.4723C62.364 14.9521 61.8644 14.5722 61.2484 14.3327C60.6324 14.0931 60.0301 13.9733 59.4414 13.9733C58.6885 13.9733 58.0041 14.1102 57.3881 14.384C56.7721 14.6578 56.2417 15.0342 55.7968 15.5133C55.3519 15.9924 55.0097 16.5537 54.7701 17.1971C54.5306 17.8404 54.4108 18.5386 54.4108 19.2915C54.4108 20.0854 54.5271 20.8109 54.7598 21.468C54.9925 22.1251 55.3245 22.6897 55.7557 23.162C56.1869 23.6343 56.7037 24.0004 57.306 24.2605C57.9083 24.5206 58.5859 24.6507 59.3388 24.6507C60.119 24.6507 60.8103 24.4967 61.4126 24.1887C62.015 23.8807 62.5009 23.4734 62.8705 22.9669L64.9444 24.4248C64.301 25.2324 63.5139 25.8587 62.583 26.3036C61.6522 26.7485 60.5639 26.9709 59.3182 26.9709C58.1821 26.9709 57.1383 26.7827 56.1869 26.4063C55.2355 26.0298 54.4176 25.5028 53.7332 24.8252C53.0487 24.1476 52.5149 23.3399 52.1316 22.4023C51.7483 21.4646 51.5566 20.4276 51.5566 19.2915C51.5566 18.1279 51.7585 17.0773 52.1624 16.1396C52.5662 15.2019 53.1206 14.4045 53.8256 13.7475C54.5306 13.0904 55.3621 12.5839 56.3204 12.228C57.2786 11.8721 58.3189 11.6941 59.4414 11.6941C59.9069 11.6941 60.3928 11.7386 60.8993 11.8276C61.4058 11.9166 61.8917 12.0535 62.3572 12.2383C62.8226 12.4231 63.2606 12.6523 63.6713 12.9261C64.082 13.1999 64.431 13.5284 64.7185 13.9117L62.7473 15.4723ZM66.4638 11.0781H68.9278V26.6013H66.4638V11.0781ZM78.1326 20.6877C78.1326 20.3729 78.0881 20.0717 77.9992 19.7843C77.9102 19.4968 77.7699 19.2435 77.5782 19.0245C77.3866 18.8055 77.1436 18.631 76.8493 18.5009C76.555 18.3709 76.2093 18.3059 75.8124 18.3059C75.0732 18.3059 74.4469 18.5283 73.9336 18.9732C73.4202 19.4181 73.1362 19.9896 73.0814 20.6877H78.1326ZM80.5966 21.7965V22.1251C80.5966 22.2346 80.5898 22.3441 80.5761 22.4536H73.0814C73.1088 22.8095 73.2012 23.1346 73.3586 23.4289C73.5161 23.7232 73.7248 23.9765 73.9849 24.1887C74.245 24.4008 74.5393 24.5685 74.8678 24.6917C75.1964 24.8149 75.5386 24.8765 75.8945 24.8765C76.5105 24.8765 77.0307 24.7636 77.455 24.5377C77.8794 24.3119 78.2285 24.0004 78.5022 23.6035L80.1449 24.9176C79.173 26.2317 77.763 26.8888 75.915 26.8888C75.1485 26.8888 74.4435 26.769 73.8001 26.5295C73.1567 26.2899 72.5989 25.9511 72.1266 25.5131C71.6544 25.075 71.2848 24.5377 71.0178 23.9012C70.7509 23.2647 70.6174 22.5426 70.6174 21.7349C70.6174 20.941 70.7509 20.2189 71.0178 19.5687C71.2848 18.9184 71.6509 18.364 72.1164 17.9055C72.5818 17.4469 73.1328 17.091 73.7693 16.8377C74.4058 16.5845 75.0937 16.4579 75.8329 16.4579C76.5173 16.4579 77.1504 16.5708 77.7322 16.7967C78.314 17.0225 78.8171 17.3579 79.2414 17.8028C79.6658 18.2477 79.9977 18.8021 80.2373 19.466C80.4769 20.1299 80.5966 20.9067 80.5966 21.7965ZM88.9742 25.3488H88.9126C88.6662 25.7868 88.2692 26.1462 87.7217 26.4268C87.1741 26.7074 86.5513 26.8477 85.8532 26.8477C85.4562 26.8477 85.0421 26.7964 84.6109 26.6937C84.1797 26.5911 83.7827 26.4199 83.42 26.1804C83.0572 25.9408 82.7561 25.626 82.5165 25.2359C82.2769 24.8457 82.1572 24.3632 82.1572 23.7883C82.1572 23.0491 82.3659 22.4604 82.7834 22.0224C83.2009 21.5843 83.7382 21.249 84.3953 21.0163C85.0524 20.7835 85.7813 20.6295 86.5821 20.5543C87.3829 20.479 88.1666 20.4413 88.9332 20.4413V20.1949C88.9332 19.5789 88.7107 19.1238 88.2658 18.8295C87.8209 18.5351 87.2905 18.388 86.6745 18.388C86.1543 18.388 85.6547 18.4975 85.1756 18.7165C84.6964 18.9355 84.2995 19.2025 83.9846 19.5173L82.7116 18.0184C83.2728 17.4982 83.9196 17.1081 84.652 16.848C85.3843 16.5879 86.1269 16.4579 86.8798 16.4579C87.7559 16.4579 88.478 16.5811 89.0461 16.8275C89.6142 17.0739 90.0625 17.3955 90.391 17.7925C90.7196 18.1895 90.9488 18.6344 91.0789 19.1272C91.2089 19.62 91.274 20.1128 91.274 20.6056V26.6013H88.9742V25.3488ZM88.9332 22.1045H88.3788C87.9818 22.1045 87.5643 22.1216 87.1262 22.1559C86.6882 22.1901 86.2844 22.2654 85.9148 22.3817C85.5452 22.4981 85.2372 22.6623 84.9908 22.8745C84.7444 23.0867 84.6212 23.3776 84.6212 23.7472C84.6212 23.9799 84.6725 24.175 84.7752 24.3324C84.8778 24.4898 85.0113 24.6164 85.1756 24.7123C85.3398 24.8081 85.5246 24.8765 85.73 24.9176C85.9353 24.9587 86.1406 24.9792 86.346 24.9792C87.1947 24.9792 87.838 24.7533 88.2761 24.3016C88.7141 23.8499 88.9332 23.2339 88.9332 22.4536V22.1045ZM93.4153 16.7453H95.7766V18.388H95.8177C96.0915 17.8131 96.4747 17.3476 96.9675 16.9917C97.4604 16.6358 98.0353 16.4579 98.6924 16.4579C98.7882 16.4579 98.8908 16.4613 99.0004 16.4681C99.1099 16.475 99.2057 16.4921 99.2878 16.5195V18.7781C99.1236 18.7371 98.9832 18.7097 98.8669 18.696C98.7505 18.6823 98.6376 18.6755 98.5281 18.6755C97.9668 18.6755 97.5151 18.7781 97.1729 18.9835C96.8307 19.1888 96.5637 19.4352 96.3721 19.7227C96.1804 20.0101 96.0504 20.3044 95.982 20.6056C95.9135 20.9067 95.8793 21.1463 95.8793 21.3243V26.6013H93.4153V16.7453ZM103.394 11.0781V17.9979H103.456C103.579 17.8336 103.737 17.6625 103.928 17.4845C104.12 17.3066 104.349 17.1423 104.616 16.9917C104.883 16.8411 105.195 16.7145 105.55 16.6119C105.906 16.5092 106.31 16.4579 106.762 16.4579C107.46 16.4579 108.103 16.5913 108.692 16.8583C109.281 17.1252 109.787 17.4914 110.212 17.9568C110.636 18.4222 110.964 18.9698 111.197 19.5995C111.43 20.2291 111.546 20.9067 111.546 21.6323C111.546 22.3578 111.433 23.0388 111.207 23.6753C110.982 24.3119 110.66 24.8663 110.242 25.3385C109.825 25.8108 109.318 26.1872 108.723 26.4679C108.127 26.7485 107.453 26.8888 106.7 26.8888C106.002 26.8888 105.349 26.7382 104.739 26.4371C104.13 26.1359 103.655 25.6979 103.312 25.1229H103.271V26.6013H100.93V11.0781H103.394ZM109.041 21.6323C109.041 21.249 108.983 20.8691 108.867 20.4927C108.75 20.1162 108.576 19.7774 108.343 19.4763C108.11 19.1751 107.816 18.9321 107.46 18.7473C107.104 18.5625 106.687 18.4701 106.208 18.4701C105.756 18.4701 105.352 18.5659 104.996 18.7576C104.64 18.9492 104.336 19.1956 104.082 19.4968C103.829 19.7979 103.637 20.1402 103.507 20.5235C103.377 20.9067 103.312 21.29 103.312 21.6733C103.312 22.0566 103.377 22.4365 103.507 22.8129C103.637 23.1894 103.829 23.5282 104.082 23.8293C104.336 24.1305 104.64 24.3735 104.996 24.5583C105.352 24.7431 105.756 24.8355 106.208 24.8355C106.687 24.8355 107.104 24.7396 107.46 24.548C107.816 24.3563 108.11 24.1099 108.343 23.8088C108.576 23.5076 108.75 23.1654 108.867 22.7821C108.983 22.3988 109.041 22.0155 109.041 21.6323ZM113.236 16.7453H115.7V26.6013H113.236V16.7453ZM112.887 13.3984C112.887 13.0014 113.034 12.6558 113.328 12.3615C113.623 12.0671 113.996 11.92 114.447 11.92C114.899 11.92 115.279 12.0603 115.587 12.3409C115.895 12.6215 116.049 12.974 116.049 13.3984C116.049 13.8227 115.895 14.1752 115.587 14.4559C115.279 14.7365 114.899 14.8768 114.447 14.8768C113.996 14.8768 113.623 14.7296 113.328 14.4353C113.034 14.141 112.887 13.7954 112.887 13.3984ZM117.281 18.7165V16.7453H119.006V13.8912H121.429V16.7453H123.893V18.7165H121.429V23.2955C121.429 23.7335 121.507 24.0963 121.665 24.3837C121.822 24.6712 122.175 24.8149 122.722 24.8149C122.886 24.8149 123.064 24.7978 123.256 24.7636C123.448 24.7294 123.619 24.678 123.769 24.6096L123.852 26.5397C123.633 26.6219 123.372 26.6869 123.071 26.7348C122.77 26.7827 122.483 26.8067 122.209 26.8067C121.552 26.8067 121.018 26.7143 120.607 26.5295C120.197 26.3447 119.871 26.0914 119.632 25.7697C119.392 25.448 119.228 25.0784 119.139 24.6609C119.05 24.2434 119.006 23.7951 119.006 23.316V18.7165H117.281Z" fill="#27282A"/>
</g>
<defs>
<linearGradient id="paint0_linear_1783_28573" x1="27.7233" y1="20" x2="36.89" y2="38.3333" gradientUnits="userSpaceOnUse">
<stop stop-color="#DEF2FE"/>
<stop offset="1" stop-color="#DBF1FE"/>
</linearGradient>
<linearGradient id="paint1_linear_1783_28573" x1="18.5566" y1="1.66797" x2="27.7233" y2="20.0013" gradientUnits="userSpaceOnUse">
<stop stop-color="#57BCFD"/>
<stop offset="1" stop-color="#51B5FD"/>
</linearGradient>
<linearGradient id="paint2_linear_1783_28573" x1="7.09766" y1="1.66797" x2="22.681" y2="32.8346" gradientUnits="userSpaceOnUse">
<stop stop-color="#1CA7FD"/>
<stop offset="1" stop-color="#148CFC"/>
</linearGradient>
<clipPath id="clip0_1783_28573">
<rect width="125" height="40" fill="white" transform="translate(0.222656)"/>
</clipPath>
</defs>
</svg>
