<svg width="136" height="40" viewBox="0 0 136 40" fill="none" xmlns="http://www.w3.org/2000/svg">
<g clip-path="url(#clip0_1783_28575)">
<path d="M8.4814 26.6649C7.76756 25.9479 7.20286 25.0978 6.81962 24.1632C6.43639 23.2287 6.24215 22.2281 6.24805 21.2187C6.24545 20.2094 6.44506 19.2096 6.83521 18.278C7.22535 17.3463 7.7982 16.5014 8.52025 15.7927C8.82955 15.519 9.07949 15.1855 9.25475 14.8123C9.43001 14.4392 9.52691 14.0344 9.53952 13.6227C9.55213 13.211 9.48017 12.8011 9.32807 12.4181C9.17597 12.035 8.94691 11.6869 8.65493 11.395C8.36294 11.1031 8.01418 10.8737 7.62998 10.7206C7.24579 10.5676 6.83425 10.4942 6.42057 10.5049C6.00689 10.5157 5.59977 10.6104 5.22413 10.7832C4.8485 10.956 4.51226 11.2034 4.236 11.51C1.64114 14.0775 0.177167 17.5657 0.166079 21.2074C0.154991 24.8491 1.5977 28.346 4.17687 30.9291C4.45223 31.2353 4.78737 31.4825 5.16185 31.6556C5.53633 31.8288 5.94231 31.9242 6.35504 31.936C6.76777 31.9479 7.17861 31.876 7.5625 31.7246C7.94639 31.5733 8.2953 31.3458 8.58796 31.0559C8.88061 30.7659 9.11088 30.4198 9.26473 30.0384C9.41858 29.657 9.49277 29.2484 9.4828 28.8376C9.47283 28.4267 9.3789 28.0222 9.20673 27.6487C9.03457 27.2752 8.78777 26.9404 8.4814 26.6649Z" fill="#FFDA00"/>
<path d="M8.52111 15.7943C9.97629 14.3605 11.9433 13.5594 13.9909 13.5667C16.0385 13.5739 17.9997 14.3889 19.4446 15.833C19.719 16.1425 20.0541 16.3928 20.4292 16.5686C20.8044 16.7444 21.2118 16.842 21.6262 16.8554C22.0407 16.8687 22.4535 16.7975 22.8393 16.6462C23.2252 16.4949 23.5758 16.2667 23.8697 15.9755C24.1636 15.6844 24.3946 15.3364 24.5485 14.9532C24.7023 14.5699 24.7758 14.1593 24.7643 13.7467C24.7528 13.3342 24.6567 12.9283 24.4819 12.554C24.307 12.1798 24.057 11.8451 23.7474 11.5705C22.475 10.2878 20.9606 9.26787 19.2911 8.56935C17.6215 7.87082 15.8298 7.50746 14.0188 7.50011C12.2077 7.49277 10.4131 7.8416 8.7379 8.52656C7.0627 9.21152 5.53996 10.2191 4.25713 11.4915C3.94671 11.7637 3.69537 12.0961 3.51849 12.4684C3.34161 12.8406 3.2429 13.2449 3.22843 13.6564C3.21395 14.068 3.28399 14.4781 3.43428 14.8618C3.58457 15.2454 3.81193 15.5945 4.10246 15.8877C4.39299 16.1809 4.74057 16.412 5.12393 16.5668C5.50728 16.7217 5.91836 16.797 6.33199 16.7883C6.74563 16.7795 7.15312 16.6869 7.52953 16.516C7.90594 16.3451 8.24335 16.0995 8.52111 15.7943Z" fill="#67B3FF"/>
<path d="M19.4244 26.7069C18.7043 27.4188 17.8502 27.9823 16.9109 28.3652C15.9717 28.7481 14.9658 28.9428 13.9508 28.9382C12.9361 28.9397 11.9313 28.7397 10.9953 28.3499C10.0592 27.9601 9.21061 27.3884 8.49924 26.6682C8.22432 26.3604 7.88916 26.1116 7.51428 25.9372C7.1394 25.7627 6.73269 25.6663 6.31906 25.6537C5.90543 25.6412 5.49358 25.7128 5.10872 25.8642C4.72387 26.0156 4.37411 26.2436 4.08086 26.5342C3.78761 26.8248 3.55704 27.1719 3.40327 27.5543C3.2495 27.9367 3.17577 28.3463 3.18659 28.7581C3.1974 29.1698 3.29254 29.575 3.46618 29.9489C3.63982 30.3228 3.8883 30.6574 4.19641 30.9324C5.47097 32.215 6.98732 33.2347 8.65856 33.933C10.3298 34.6312 12.1231 34.9944 13.9356 35.0016C15.7481 35.0087 17.5442 34.6598 19.2209 33.9748C20.8977 33.2898 22.4222 32.2822 23.707 31.0097C23.9908 30.7299 24.2165 30.3971 24.3712 30.0304C24.5258 29.6637 24.6064 29.2703 24.6083 28.8726C24.6101 28.4749 24.5333 28.0808 24.3821 27.7126C24.231 27.3445 24.0084 27.0096 23.7272 26.7271C23.446 26.4446 23.1117 26.2199 22.7433 26.066C22.3749 25.9121 21.9796 25.8319 21.58 25.83C21.1805 25.8282 20.7845 25.9046 20.4146 26.0551C20.0447 26.2055 19.7083 26.427 19.4244 26.7069Z" fill="#EB5A68"/>
<path d="M8.5199 15.793C8.09369 16.2167 7.55064 16.5049 6.95964 16.621C6.36864 16.737 5.75632 16.6758 5.20034 16.445C4.64437 16.2142 4.1698 15.8242 3.83683 15.3245C3.50386 14.8249 3.32749 14.238 3.33011 13.6385C3.33272 13.0389 3.51419 12.4536 3.8515 11.9569C4.18882 11.4601 4.66677 11.0742 5.22473 10.8482C5.7827 10.6222 6.39553 10.5663 6.9855 10.6875C7.57547 10.8086 8.11598 11.1015 8.53849 11.5288C9.10136 12.0982 9.41527 12.866 9.41179 13.6647C9.40831 14.4635 9.08772 15.2285 8.5199 15.793Z" fill="#47A1FF"/>
<path d="M8.46045 30.9306C8.03408 31.3541 7.49091 31.6421 6.89987 31.7579C6.30882 31.8737 5.69652 31.8122 5.14064 31.5812C4.58476 31.3502 4.11034 30.96 3.77757 30.4603C3.4448 29.9605 3.26867 29.3736 3.27152 28.774C3.27437 28.1744 3.45607 27.5892 3.79358 27.0926C4.13109 26.596 4.60919 26.2103 5.16725 25.9845C5.7253 25.7587 6.33816 25.703 6.92808 25.8244C7.51799 25.9458 8.0584 26.2389 8.48073 26.6664C9.04338 27.236 9.35699 28.0039 9.35319 28.8026C9.34939 29.6014 9.0285 30.3663 8.46045 30.9306Z" fill="#D5465F"/>
<path d="M37.2789 24.1863C38.1557 23.5271 38.2723 23.8954 39.0122 24.6318C39.3822 25.0001 40.3941 25.6407 39.7319 26.1821C38.35 27.3053 37.1032 27.8098 35.3395 27.8098C31.3475 27.7913 28.5246 24.8252 28.751 20.8906C28.8473 19.1285 29.5484 17.4605 30.932 16.3171C32.1973 15.251 33.7735 14.787 35.4291 14.8256C36.2405 14.8232 37.0444 14.981 37.7942 15.2897C38.302 15.4722 38.7806 15.7271 39.215 16.0464C40.0917 16.719 39.6829 17.1124 39.0004 17.79C38.845 17.9447 38.6896 18.1011 38.5527 18.2558C38.203 18.6039 37.9682 18.8561 37.5019 18.5265C36.6066 17.9061 35.4747 17.5765 34.4053 17.8539C30.959 18.7249 31.1144 24.8303 35.3412 24.8504C36.0419 24.8413 36.7211 24.6084 37.2789 24.1863ZM133.078 27.8854C132.94 27.8861 132.803 27.8595 132.675 27.8072C132.547 27.7549 132.431 27.6779 132.333 27.5807C132.235 27.4835 132.158 27.3679 132.105 27.2407C132.052 27.1135 132.025 26.9772 132.026 26.8396L132.085 13.3123C132.084 13.1747 132.111 13.0383 132.163 12.9111C132.216 12.7838 132.293 12.6681 132.391 12.5707C132.489 12.4733 132.605 12.3962 132.733 12.3437C132.86 12.2912 132.997 12.2644 133.136 12.2648H134.266C134.404 12.2643 134.541 12.2912 134.669 12.3438C134.797 12.3964 134.913 12.4738 135.011 12.5713C135.109 12.6689 135.186 12.7847 135.238 12.9122C135.291 13.0397 135.317 13.1763 135.317 13.314L135.257 26.8413C135.258 26.9788 135.231 27.1151 135.179 27.2423C135.126 27.3695 135.049 27.485 134.951 27.5823C134.853 27.6795 134.737 27.7566 134.61 27.8089C134.482 27.8612 134.345 27.8878 134.207 27.8871L133.078 27.8854ZM127.165 26.3167C125.939 27.46 124.77 28.0603 123.037 28.0603C119.533 28.0401 117.857 25.1531 117.857 21.9163L117.877 16.4129C117.877 16.2754 117.904 16.1391 117.956 16.012C118.009 15.8849 118.087 15.7695 118.185 15.6724C118.283 15.5753 118.399 15.4985 118.527 15.4464C118.655 15.3942 118.791 15.3679 118.93 15.3687H120.06C120.198 15.3681 120.335 15.3947 120.463 15.447C120.591 15.4993 120.707 15.5763 120.804 15.6736C120.902 15.7708 120.979 15.8864 121.032 16.0136C121.085 16.1408 121.111 16.2771 121.111 16.4146L121.092 21.918C121.092 23.7205 122.065 25.1346 123.974 25.1346C125.883 25.1346 127.05 23.5456 127.069 21.7717V19.8061C127.054 19.7297 127.047 19.6519 127.05 19.574L127.069 16.4533C127.068 16.3158 127.095 16.1795 127.148 16.0523C127.2 15.9251 127.278 15.8095 127.375 15.7123C127.473 15.615 127.589 15.538 127.717 15.4857C127.845 15.4333 127.982 15.4068 128.12 15.4074H129.235C129.373 15.4068 129.51 15.4333 129.638 15.4857C129.766 15.538 129.882 15.615 129.979 15.7123C130.077 15.8095 130.154 15.9251 130.207 16.0523C130.26 16.1795 130.286 16.3158 130.286 16.4533L130.248 26.8413C130.246 27.1161 130.134 27.3787 129.937 27.5713C129.74 27.7639 129.474 27.8709 129.198 27.8686H128.243C127.972 27.8602 127.714 27.7493 127.523 27.5584C127.331 27.3675 127.219 27.1111 127.211 26.8413L127.165 26.3167ZM113.723 15.4074H115.904C116.042 15.4094 116.179 15.4386 116.306 15.4933C116.433 15.5481 116.547 15.6273 116.643 15.7264C116.739 15.8255 116.815 15.9425 116.865 16.0708C116.915 16.199 116.939 16.3359 116.936 16.4735V17.1898C116.934 17.4659 116.823 17.7301 116.627 17.9257C116.431 18.1213 116.166 18.2325 115.889 18.2356H113.703L113.664 26.7824C113.665 26.92 113.638 27.0564 113.585 27.1837C113.533 27.311 113.455 27.4266 113.358 27.524C113.26 27.6214 113.144 27.6986 113.016 27.7511C112.888 27.8036 112.751 27.8304 112.613 27.83H111.485C111.346 27.8304 111.209 27.8036 111.081 27.7511C110.953 27.6986 110.837 27.6215 110.739 27.5241C110.642 27.4268 110.564 27.3111 110.511 27.1838C110.459 27.0565 110.432 26.9201 110.432 26.7824L110.471 14.9618C110.471 12.3842 111.951 10.3479 114.6 10.1159C114.678 10.1159 114.735 10.0974 114.813 10.0974C114.968 10.0873 115.125 10.0873 115.281 10.0974H116.294C116.432 10.0994 116.569 10.1285 116.696 10.1832C116.822 10.2378 116.937 10.3169 117.033 10.4158C117.129 10.5147 117.204 10.6316 117.255 10.7596C117.305 10.8876 117.329 11.0243 117.326 11.1618V11.8209C117.325 12.0979 117.213 12.3631 117.017 12.5591C116.82 12.7551 116.554 12.8662 116.276 12.8684H115.458C114.211 12.8684 113.686 13.8168 113.666 14.9803L113.723 15.4074ZM105.896 15.3687H108.287C108.563 15.3714 108.827 15.483 109.02 15.6791C109.214 15.8752 109.321 16.1397 109.319 16.4146V17.1309C109.316 17.4058 109.204 17.6683 109.007 17.861C108.81 18.0536 108.544 18.1605 108.268 18.1583H105.876L105.857 23.3876C105.857 24.3964 106.344 24.9765 107.356 24.9765H107.842C108.119 24.9796 108.382 25.0917 108.576 25.288C108.769 25.4844 108.877 25.7491 108.875 26.0241V26.7505C108.871 27.0252 108.759 27.2875 108.562 27.48C108.365 27.6726 108.1 27.7796 107.824 27.7778H106.908C106.739 27.7812 106.57 27.7745 106.401 27.7577C103.811 27.5895 102.663 25.9182 102.663 23.3977C102.683 20.0062 102.683 16.6349 102.702 13.2434C102.703 13.1072 102.731 12.9725 102.785 12.8471C102.838 12.7218 102.916 12.6081 103.014 12.5127C103.112 12.4173 103.227 12.342 103.354 12.2911C103.481 12.2402 103.617 12.2147 103.754 12.216H104.864C105.14 12.2187 105.404 12.3303 105.597 12.5264C105.791 12.7225 105.898 12.987 105.896 13.2619V15.3687ZM71.264 15.2326H73.6545C73.9307 15.2352 74.1945 15.3468 74.388 15.5429C74.5815 15.739 74.6889 16.0035 74.6867 16.2784V16.9981C74.6836 17.2728 74.5713 17.5351 74.3744 17.7276C74.1774 17.9202 73.9119 18.0272 73.6359 18.0254H71.237V23.2564C71.237 24.2653 71.7235 24.8454 72.7355 24.8454H73.2237C73.3604 24.8467 73.4954 24.8748 73.6212 24.9281C73.7469 24.9814 73.8609 25.0588 73.9566 25.1559C74.0523 25.253 74.1278 25.3679 74.1789 25.4941C74.23 25.6203 74.2556 25.7552 74.2542 25.8913V26.6075C74.2515 26.8824 74.1394 27.145 73.9424 27.3376C73.7454 27.5302 73.4796 27.6372 73.2034 27.6349H72.4838C69.6591 27.6164 68.0238 26.4142 68.0238 23.2631C68.0441 19.8717 68.0441 16.4987 68.0627 13.1072C68.0658 12.8322 68.1783 12.5696 68.3756 12.377C68.5729 12.1845 68.8388 12.0776 69.1152 12.0798H70.2251C70.5012 12.0829 70.7649 12.195 70.9581 12.3914C71.1513 12.5878 71.2583 12.8525 71.2556 13.1274L71.264 15.2326ZM57.2068 16.7055C58.3555 15.6395 59.6023 14.9618 61.2173 14.9618C64.7228 14.9803 66.5338 17.8203 66.5135 21.1042L66.4949 26.6075C66.4954 26.7452 66.4685 26.8817 66.4157 27.0089C66.363 27.1362 66.2855 27.2519 66.1877 27.3493C66.0899 27.4466 65.9736 27.5238 65.8458 27.5763C65.7179 27.6287 65.5808 27.6555 65.4425 27.6551H64.314C64.1756 27.6555 64.0386 27.6287 63.9107 27.5763C63.7828 27.5238 63.6666 27.4466 63.5687 27.3493C63.4709 27.2519 63.3934 27.1362 63.3407 27.0089C63.288 26.8817 63.261 26.7452 63.2615 26.6075L63.2818 21.1428C63.2818 19.3403 62.3087 17.9262 60.3997 17.9262C58.4907 17.9262 57.3233 19.4967 57.3048 21.279L57.2845 26.6075C57.2818 26.8824 57.1696 27.145 56.9726 27.3376C56.7756 27.5302 56.5099 27.6372 56.2337 27.6349H55.1238C54.8476 27.6322 54.5838 27.5206 54.3903 27.3245C54.1968 27.1284 54.0893 26.8639 54.0916 26.5891C54.1102 23.2749 54.1101 19.9423 54.1304 16.6282V16.1826C54.1313 15.908 54.2415 15.645 54.4369 15.4512C54.6323 15.2573 54.8969 15.1485 55.1728 15.1485H56.1273C56.3985 15.1565 56.6564 15.2673 56.8482 15.4583C57.0401 15.6492 57.1514 15.9059 57.1595 16.1758L57.2068 16.7055ZM91.9048 16.84C93.0536 15.7757 94.2986 15.0964 95.9154 15.0964C99.4208 15.1165 101.23 17.9649 101.212 21.2404L101.191 26.7505C101.192 26.8881 101.165 27.0245 101.113 27.1517C101.06 27.279 100.983 27.3947 100.885 27.4921C100.787 27.5895 100.671 27.6666 100.544 27.7191C100.416 27.7717 100.279 27.7985 100.14 27.798H99.012C98.8736 27.7985 98.7366 27.7717 98.6087 27.7192C98.4808 27.6667 98.3646 27.5895 98.2668 27.4922C98.1689 27.3948 98.0914 27.2792 98.0387 27.1519C97.986 27.0246 97.959 26.8882 97.9595 26.7505L97.9798 21.2858C97.9798 19.4833 97.005 18.0692 95.0977 18.0692C93.1904 18.0692 92.0213 19.6379 92.0011 21.422L91.974 26.7505C91.9709 27.0255 91.8584 27.288 91.6611 27.4806C91.4638 27.6732 91.1979 27.7801 90.9216 27.7778H89.8117C89.5358 27.7747 89.2724 27.6629 89.0793 27.4669C88.8861 27.2708 88.7789 27.0065 88.7811 26.732L88.82 16.3238C88.8204 16.187 88.8481 16.0516 88.9013 15.9255C88.9545 15.7993 89.0322 15.6849 89.1301 15.5888C89.2279 15.4927 89.3438 15.4168 89.4713 15.3655C89.5987 15.3141 89.735 15.2884 89.8725 15.2897H90.827C91.0992 15.2987 91.3576 15.411 91.5492 15.6036C91.7409 15.7962 91.8512 16.0545 91.8575 16.3255L91.9048 16.84ZM46.606 14.8643C42.8083 14.8441 40.1221 17.5765 40.1019 21.3362C40.0833 25.1346 42.7305 27.83 46.5671 27.8485C50.4037 27.867 53.0898 25.1934 53.1084 21.3698C53.1286 17.6353 50.3834 14.8828 46.606 14.8643ZM78.1296 22.636C78.4016 24.3796 80.0775 25.0959 81.7128 25.1161C82.5326 25.109 83.3417 24.9308 84.0881 24.5932C84.2081 24.5445 84.3249 24.4884 84.4378 24.425C84.828 24.2115 85.1777 24.077 85.5291 24.425C85.7234 24.6184 85.8991 24.8134 86.0933 24.9866C86.2768 25.1609 86.4463 25.3492 86.6002 25.5499C87.1255 26.2074 86.7556 26.3637 86.1525 26.7706C84.8669 27.6231 83.1927 28.0485 81.6537 28.0485C77.5265 28.0301 74.7999 25.5264 74.7999 21.3833C74.8202 17.4672 77.5451 14.871 81.478 14.8895C85.4902 14.9097 87.7675 17.2553 87.8266 21.2471C87.8452 22.3316 87.8841 22.6814 86.7556 22.6814L78.1296 22.636ZM46.606 17.79C48.5724 17.79 49.8766 19.4967 49.8766 21.3766C49.8766 23.3338 48.6501 24.9076 46.5857 24.9076C44.5213 24.9076 43.3151 23.3186 43.3151 21.3614C43.3151 19.4042 44.5618 17.79 46.606 17.79ZM78.2158 19.9423L84.681 19.9608C84.4462 18.3516 83.1032 17.7127 81.5658 17.7127C80.0285 17.7127 78.6939 18.4307 78.2158 19.9423Z" fill="#29303A"/>
</g>
<defs>
<clipPath id="clip0_1783_28575">
<rect width="135.833" height="40" fill="white" transform="translate(0.166016)"/>
</clipPath>
</defs>
</svg>
