<svg width="114" height="40" viewBox="0 0 114 40" fill="none" xmlns="http://www.w3.org/2000/svg">
<g clip-path="url(#clip0_1783_28040)">
<path d="M82.3624 11.7085H80.1356V28.3802H89.1694V26.3098H82.3624V11.7085ZM97.7686 25.4563C97.2074 26.0374 96.266 26.6186 94.9988 26.6186C93.297 26.6186 92.6091 25.7832 92.6091 24.6754C92.6091 23.0227 93.7496 22.2237 96.1936 22.2237C96.6462 22.2237 97.3885 22.2781 97.7686 22.3508V25.4563ZM95.4695 15.3589C93.6591 15.3589 92.0117 15.9945 90.7263 17.066L91.5229 18.4462C92.428 17.9195 93.5505 17.3747 95.1617 17.3747C96.9902 17.3747 97.8049 18.3191 97.8049 19.8991V20.7163C97.4428 20.6437 96.7186 20.5892 96.2479 20.5892C92.3375 20.5892 90.3642 21.9694 90.3642 24.8388C90.3642 27.4176 91.9392 28.7071 94.3289 28.7071C95.9402 28.7071 97.479 27.9625 98.004 26.7639L98.4023 28.3983H99.9773V19.8627C99.9592 17.1568 98.7824 15.3589 95.4695 15.3589ZM107.164 26.7094C106.332 26.7094 105.589 26.6004 105.028 26.3462V18.646C105.789 18.0103 106.73 17.5563 107.925 17.5563C110.079 17.5563 110.912 19.0818 110.912 21.5517C110.93 25.0567 109.572 26.7094 107.164 26.7094ZM108.106 15.3589C106.114 15.3589 105.028 16.7209 105.028 16.7209V14.5598V11.7085H102.838V27.9806C103.924 28.4347 105.427 28.6889 107.056 28.6889C111.22 28.6889 113.229 26.0193 113.229 21.4064C113.229 17.7743 111.383 15.3589 108.106 15.3589ZM58.0672 13.5246C60.0405 13.5246 61.3259 14.1784 62.1586 14.8504L63.1181 13.1796C61.8147 12.0354 60.0405 11.418 58.1758 11.418C53.4326 11.418 50.1016 14.3237 50.1016 20.1715C50.1016 26.3098 53.6861 28.7071 57.7956 28.7071C59.8595 28.7071 61.5974 28.2167 62.738 27.7445L62.6836 21.1885V19.1H56.5827V21.1703H60.475L60.5293 26.1464C60.0224 26.4006 59.1353 26.6004 57.9405 26.6004C54.6456 26.6004 52.4369 24.5119 52.4369 20.1352C52.4369 15.6858 54.718 13.5246 58.0672 13.5246ZM73.7812 11.7085H71.5907V14.5053V24.185C71.5907 26.891 72.7674 28.6889 76.0804 28.6889C76.533 28.6889 76.9856 28.6526 77.4201 28.5618V26.6004C77.1123 26.6549 76.7683 26.6731 76.4063 26.6731C74.5778 26.6731 73.7631 25.7287 73.7631 24.1487V17.4837H77.4201V15.6676H73.7631L73.7812 11.7085ZM66.0509 28.3802H68.2415V15.6676H66.0509V28.3802ZM66.0509 13.906H68.2415V11.7085H66.0509V13.906Z" fill="#888F9B"/>
<path d="M20.1752 38.3331L27.4891 15.7773H12.8613L20.1752 38.3331Z" fill="#D74B3A"/>
<path d="M20.1753 38.3331L12.8614 15.7773H2.63281L20.1753 38.3331Z" fill="#F36F3C"/>
<path d="M2.63373 15.7773L0.406975 22.624C0.207834 23.2414 0.425079 23.9315 0.950086 24.3129L20.1581 38.3149L2.63373 15.7773Z" fill="#F3993F"/>
<path d="M2.63281 15.7756H12.8795L8.46221 2.19136C8.24496 1.48309 7.24926 1.48309 7.03201 2.19136L2.63281 15.7756Z" fill="#D74B3A"/>
<path d="M20.1758 38.3331L27.4897 15.7773H37.7364L20.1758 38.3331Z" fill="#F36F3C"/>
<path d="M37.7178 15.7773L39.9445 22.624C40.1437 23.2414 39.9264 23.9315 39.4014 24.3129L20.1934 38.3149L37.7178 15.7773Z" fill="#F3993F"/>
<path d="M37.7174 15.7776H27.4707L31.8699 2.19336C32.1053 1.50325 33.0829 1.50325 33.3001 2.19336L37.7174 15.7776Z" fill="#D74B3A"/>
</g>
<defs>
<clipPath id="clip0_1783_28040">
<rect width="113.333" height="40" fill="white" transform="translate(0.333984)"/>
</clipPath>
</defs>
</svg>
