<svg width="95" height="40" viewBox="0 0 95 40" fill="none" xmlns="http://www.w3.org/2000/svg">
<g clip-path="url(#clip0_1783_28570)">
<path d="M25.3145 28.3225V10.0263H28.1571V17.2394C29.0522 15.9061 30.3949 15.2392 32.1848 15.2388C33.7117 15.2388 34.8919 15.6907 35.7257 16.5944C36.5594 17.4982 36.9764 18.7575 36.9765 20.3721V28.3225H34.1338V20.7671C34.1338 18.6788 33.2036 17.6346 31.3431 17.6343C30.4127 17.6343 29.6494 17.9151 29.0529 18.4767C28.4566 19.0383 28.1581 19.8281 28.1576 20.846V28.3223L25.3145 28.3225Z" fill="#323232"/>
<path d="M50.411 26.7434C49.1474 28.007 47.5592 28.6387 45.6462 28.6387C43.7333 28.6387 42.1406 28.007 40.8681 26.7434C39.5956 25.4797 38.9594 23.8736 38.9595 21.925C38.9596 19.9766 39.5958 18.3753 40.8681 17.121C42.1404 15.8664 43.7331 15.239 45.6462 15.2387C47.5593 15.2385 49.1476 15.8659 50.411 17.121C51.6748 18.376 52.3066 19.9774 52.3065 21.925C52.3064 23.8728 51.6746 25.4789 50.411 26.7434ZM42.9479 25.1373C43.6231 25.927 44.5226 26.322 45.6462 26.322C46.77 26.322 47.6694 25.927 48.3445 25.1373C49.0199 24.3475 49.3577 23.2769 49.358 21.925C49.358 20.5914 49.0159 19.5296 48.3314 18.7398C47.647 17.9499 46.7519 17.555 45.6462 17.5551C44.5229 17.5551 43.6234 17.9456 42.9479 18.7265C42.2723 19.5075 41.9345 20.5735 41.9343 21.9245C41.9343 23.2769 42.2721 24.3477 42.9479 25.1373Z" fill="#323232"/>
<path d="M58.8866 28.6383C56.2714 28.6383 54.9638 27.2343 54.9638 24.4262V17.9502H52.9899V15.5547H55.0432L55.7015 11.7909H57.8335V15.5547H62.9142V17.9502H57.8337V24.3473C57.8337 25.5234 58.2636 26.1113 59.1236 26.1112C59.9306 26.1112 60.6589 25.374 61.3085 23.8998L63.52 25.0319C62.4316 27.4365 60.8871 28.6385 58.8866 28.6383Z" fill="#323232"/>
<path d="M64.4339 34.1667C63.1703 34.1667 62.126 33.8157 61.3012 33.1136L62.3542 30.876C62.8634 31.4724 63.4162 31.7709 64.0128 31.7715C64.8024 31.7715 65.1972 31.2626 65.1972 30.2446V15.5547H68.0399V30.2966C68.0399 31.6655 67.7021 32.6528 67.0264 33.2581C66.3507 33.8636 65.4865 34.1664 64.4339 34.1667ZM66.6189 13.3959C66.1515 13.4117 65.697 13.2413 65.3552 12.9221C65.1908 12.7672 65.0613 12.5791 64.9751 12.3704C64.8889 12.1616 64.848 11.9369 64.8552 11.7112C64.8488 11.4836 64.8901 11.2571 64.9762 11.0464C65.0623 10.8356 65.1914 10.6451 65.3552 10.487C65.6989 10.1737 66.1472 10 66.6123 10C67.0773 10 67.5257 10.1737 67.8694 10.487C68.0366 10.6431 68.1689 10.833 68.2574 11.044C68.3459 11.255 68.3887 11.4824 68.3827 11.7112C68.3868 11.9358 68.3432 12.1587 68.2547 12.3652C68.1662 12.5717 68.0349 12.757 67.8694 12.9089C67.7032 13.0684 67.5073 13.1935 67.2927 13.2771C67.0781 13.3606 66.8491 13.401 66.6189 13.3959Z" fill="#323232"/>
<path d="M75.1007 28.6384C73.6438 28.6384 72.4634 28.2742 71.5599 27.546C70.6563 26.8177 70.2045 25.8395 70.2043 24.6114C70.2043 23.4882 70.6737 22.536 71.6127 21.7545C72.5515 20.9731 73.7318 20.5826 75.1533 20.5831C76.61 20.5831 77.8386 21.0482 78.8389 21.9784V20.425C78.8389 19.5127 78.6063 18.8063 78.1412 18.3058C77.676 17.8053 77.0135 17.5552 76.1538 17.5555C74.4163 17.5555 73.337 18.4417 72.9157 20.2142L70.3094 19.6615C70.66 18.2926 71.3533 17.2133 72.3892 16.4235C73.4252 15.6338 74.7151 15.2389 76.2589 15.2389C77.9439 15.2389 79.2734 15.682 80.2473 16.5684C81.2212 17.4547 81.7082 18.749 81.7084 20.4512V28.3226H78.9441V26.7165C78.0137 27.9979 76.7326 28.6386 75.1007 28.6384ZM75.6266 26.5324C76.8904 26.5324 77.9611 25.9007 78.8388 24.6371V24.2418C77.961 23.1889 76.8903 22.6623 75.6266 22.6624C74.8896 22.6624 74.2927 22.8425 73.8357 23.2026C73.6197 23.3616 73.4449 23.5701 73.3259 23.8105C73.2068 24.0509 73.147 24.3163 73.1512 24.5845C73.1442 24.8556 73.2015 25.1244 73.3181 25.3692C73.4348 25.6139 73.6077 25.8277 73.8226 25.9929C74.2711 26.3527 74.8721 26.5325 75.6266 26.5324Z" fill="#323232"/>
<path d="M84.4746 28.3225V15.5547H87.2388V17.766C87.9405 16.1514 89.1515 15.3441 90.8717 15.344C91.8892 15.344 92.7316 15.6775 93.3989 16.3444C94.0662 17.0112 94.3995 17.9063 94.3989 19.0295C94.3919 19.7018 94.2764 20.3685 94.0568 21.0039L91.4506 20.7407C91.5041 20.3918 91.5391 20.0403 91.5557 19.6877C91.5557 18.3715 91.0118 17.7133 89.9238 17.7132C89.1865 17.7132 88.5678 18.1037 88.0678 18.8847C87.5678 19.6657 87.3176 20.6968 87.3174 21.9781V28.3225H84.4746Z" fill="#323232"/>
<path d="M7.56055 17.5092C9.67919 16.3322 12.5808 14.7199 12.5808 10.0273H9.0673C9.0673 12.6528 7.7891 13.3629 5.85425 14.4379C3.73563 15.6153 0.833984 17.2269 0.833984 21.9199H4.34751C4.34751 19.2943 5.6257 18.5842 7.56055 17.5092Z" fill="#FF3C00"/>
<path d="M13.6417 16.4308C13.6417 19.0565 12.3635 19.7666 10.4286 20.8413C8.31057 22.0183 5.40837 23.6305 5.40837 28.3233H8.92175C8.92175 25.6977 10.1999 24.9876 12.1348 23.9127C14.2534 22.7357 17.1549 21.1238 17.1549 16.4308H13.6417Z" fill="#FF3C00"/>
</g>
<defs>
<clipPath id="clip0_1783_28570">
<rect width="94.1667" height="40" fill="white" transform="translate(0.833984)"/>
</clipPath>
</defs>
</svg>
