<svg width="105" height="40" viewBox="0 0 105 40" fill="none" xmlns="http://www.w3.org/2000/svg">
<g clip-path="url(#clip0_1783_28574)">
<path d="M5.46647 8.57224C3.33683 9.46368 0.995638 11.9821 0.256214 15.1433C-0.680209 19.1486 3.21668 20.8423 3.53631 20.287C3.9125 19.6344 2.83803 19.4138 2.61686 17.3356C2.33101 14.6515 3.57885 11.6523 5.14929 10.3364C5.44121 10.0919 5.42732 10.4322 5.42732 11.0616C5.42732 12.1872 5.36513 22.2916 5.36513 24.4004C5.36513 27.2538 5.24727 28.1549 5.0356 29.0453C4.82113 29.9476 4.47633 30.5573 4.7376 30.7921C5.0295 31.0548 6.27583 30.4299 6.99735 29.4229C7.86255 28.2152 8.16541 26.7647 8.21979 25.1896C8.28546 23.2908 8.28267 20.2778 8.28546 18.5592C8.28809 16.983 8.31201 12.3675 8.25784 9.5928C8.24455 8.91223 6.3571 8.19822 5.46637 8.57142L5.46647 8.57224ZM81.0901 21.9262C81.0214 23.4097 80.693 24.5692 80.2855 25.3871C79.4965 26.9704 77.8593 27.4621 77.1642 25.1859C76.7854 23.9452 76.7677 21.8731 77.0401 20.1417C77.3173 18.3779 78.0914 17.0459 79.3732 17.166C80.6375 17.2848 81.2293 18.9139 81.0901 21.9262ZM59.7762 31.1299C59.759 33.5947 59.3711 35.7559 58.5392 36.3836C57.3593 37.2736 55.7735 36.606 56.1019 34.8074C56.3924 33.2158 57.7665 31.5903 59.7795 29.6043C59.7795 29.6043 59.7837 30.0572 59.7762 31.1299ZM59.4539 21.9119C59.3818 23.263 59.0315 24.6203 58.6494 25.3873C57.8606 26.9706 56.2115 27.4656 55.5281 25.1861C55.0609 23.6287 55.1728 21.613 55.404 20.343C55.704 18.6951 56.4311 17.1664 57.7371 17.1664C59.0068 17.1664 59.6329 18.5593 59.4539 21.9119ZM47.1068 21.8912C47.0294 23.3222 46.7502 24.5184 46.3022 25.3873C45.4917 26.9597 43.8882 27.4584 43.181 25.1861C42.6712 23.5477 42.8447 21.3136 43.0568 20.1067C43.3715 18.3158 44.1596 17.0461 45.3899 17.1664C46.6537 17.2898 47.2681 18.9139 47.1068 21.8912ZM103.691 23.5627C103.382 23.5627 103.241 23.8811 103.124 24.4171C102.72 26.2809 102.295 26.7017 101.746 26.7017C101.134 26.7017 100.583 25.7789 100.442 23.9315C100.331 22.4788 100.348 19.8044 100.491 17.1441C100.52 16.5975 100.369 16.0567 98.9028 15.5242C98.272 15.2951 97.355 14.9578 96.8984 16.0599C95.6084 19.1736 95.1036 21.6456 94.9849 22.6498C94.9787 22.7018 94.915 22.7124 94.9038 22.591C94.8281 21.7867 94.659 20.3251 94.6379 17.2543C94.6339 16.6552 94.5069 16.1452 93.8456 15.7277C93.4165 15.4567 92.1135 14.9776 91.6444 15.5476C91.2379 16.0138 90.7671 17.2685 90.278 18.7557C89.8804 19.9645 89.6035 20.7822 89.6035 20.7822C89.6035 20.7822 89.6088 17.5207 89.6135 16.2835C89.6156 15.8168 89.2955 15.6613 89.199 15.6331C88.7644 15.507 87.9084 15.2963 87.545 15.2963C87.0966 15.2963 86.9868 15.5469 86.9868 15.9121C86.9868 15.9599 86.9161 20.2062 86.9161 23.1754C86.9161 23.3044 86.9161 23.4451 86.9174 23.5946C86.6694 24.9593 85.8652 26.8118 84.9906 26.8118C84.1149 26.8118 83.7018 26.0373 83.7018 22.4975C83.7018 20.4325 83.7637 19.5346 83.7942 18.0411C83.8119 17.1808 83.8461 16.5202 83.8441 16.3703C83.8377 15.9106 83.0427 15.6789 82.6728 15.5932C82.3012 15.5069 81.9783 15.4734 81.7261 15.4878C81.3691 15.5079 81.1166 15.7421 81.1166 16.0642C81.1166 16.2368 81.1186 16.5652 81.1186 16.5652C80.6588 15.8428 79.9194 15.34 79.4275 15.1943C78.1024 14.8007 76.7197 15.1494 75.6768 16.6088C74.8479 17.7684 74.3482 19.0817 74.1516 20.9686C74.0078 22.3481 74.0547 23.747 74.3102 24.93C74.0015 26.2649 73.4282 26.8118 72.8006 26.8118C71.8894 26.8118 71.2287 25.3245 71.3054 22.7522C71.356 21.0603 71.6946 19.873 72.0647 18.1553C72.2225 17.423 72.0943 17.0397 71.7727 16.6722C71.4778 16.3353 70.8494 16.1631 69.946 16.3749C69.3026 16.5258 68.3826 16.6882 67.5409 16.8129C67.5409 16.8129 67.5917 16.6102 67.6334 16.253C67.8523 14.3794 65.8164 14.5314 65.1668 15.1298C64.7791 15.4871 64.5151 15.9085 64.4149 16.6661C64.2561 17.8684 65.2367 18.4355 65.2367 18.4355C64.9149 19.9082 64.1263 21.832 63.3121 23.2229C62.876 23.9682 62.5424 24.5204 62.1118 25.1074C62.1102 24.8888 62.109 24.6703 62.1082 24.4527C62.0984 21.3565 62.1396 18.9197 62.1578 18.0414C62.1755 17.1811 62.21 16.538 62.208 16.3881C62.2032 16.0519 62.0068 15.9249 61.5984 15.7641C61.2373 15.6219 60.8103 15.5235 60.3674 15.4891C59.8083 15.4455 59.4716 15.742 59.4803 16.0927C59.482 16.1589 59.482 16.5653 59.482 16.5653C59.0223 15.8429 58.2829 15.3401 57.7909 15.1944C56.4658 14.801 55.0832 15.1497 54.0402 16.609C53.2115 17.7685 52.6688 19.3957 52.515 20.9544C52.3717 22.4071 52.3982 23.6416 52.5934 24.6816C52.3828 25.723 51.777 26.8119 51.092 26.8119C50.2163 26.8119 49.7181 26.0374 49.7181 22.4977C49.7181 20.4327 49.7801 19.5347 49.8106 18.0414C49.8282 17.1811 49.8624 16.5203 49.8605 16.3706C49.854 15.9109 49.059 15.6792 48.6892 15.5933C48.3021 15.5039 47.968 15.4709 47.7114 15.4898C47.3729 15.5151 47.1348 15.8182 47.1348 16.0443V16.5653C46.6751 15.8429 45.9357 15.3401 45.4437 15.1944C44.1187 14.801 42.7437 15.1553 41.6931 16.609C41.0079 17.5568 40.4533 18.6076 40.1678 20.9337C40.0853 21.6059 40.0489 22.2354 40.0536 22.8238C39.7804 24.4946 38.5737 26.4203 37.5867 26.4203C37.0091 26.4203 36.459 25.3 36.459 22.9124C36.459 19.7319 36.6559 15.2037 36.6891 14.7672C36.6891 14.7672 37.9363 14.7461 38.1778 14.7432C38.7998 14.7364 39.3633 14.7511 40.1918 14.7087C40.6074 14.6876 41.0078 13.1961 40.5789 13.0115C40.3845 12.928 39.0105 12.8548 38.4659 12.8432C38.0079 12.8328 36.7329 12.7385 36.7329 12.7385C36.7329 12.7385 36.8473 9.73282 36.8739 9.41531C36.8965 9.15068 36.5541 9.01443 36.3578 8.93175C35.8804 8.72983 35.4532 8.63315 34.9469 8.52877C34.2474 8.38447 33.9301 8.52562 33.8681 9.116C33.7747 10.012 33.7264 12.6364 33.7264 12.6364C33.2131 12.6364 31.4596 12.536 30.9461 12.536C30.4691 12.536 29.9542 14.5877 30.6137 14.6129C31.3726 14.6424 32.695 14.6678 33.5717 14.6942C33.5717 14.6942 33.5327 19.2971 33.5327 20.7181C33.5327 20.8693 33.534 21.0149 33.5343 21.1562C33.0518 23.6711 31.3523 25.0296 31.3523 25.0296C31.7172 23.3658 30.9717 22.1164 29.6288 21.0588C29.134 20.6691 28.1573 19.9312 27.0644 19.1227C27.0644 19.1227 27.6974 18.4989 28.2587 17.2439C28.6564 16.3549 28.6736 15.3375 27.6974 15.1132C26.0844 14.7422 24.7544 15.9268 24.3577 17.1915C24.0504 18.1712 24.2143 18.8982 24.8164 19.6533C24.8604 19.7085 24.908 19.7649 24.9572 19.8216C24.5931 20.5234 24.0929 21.4683 23.6693 22.201C22.4934 24.2354 21.6052 25.8445 20.9339 25.8445C20.3972 25.8445 20.4044 24.2108 20.4044 22.6812C20.4044 21.3626 20.5018 19.3801 20.5796 17.3276C20.6053 16.6487 20.2659 16.262 19.6969 15.9118C19.3512 15.699 18.6133 15.2806 18.186 15.2806C17.5464 15.2806 15.701 15.3676 13.9574 20.4113C13.7376 21.047 13.306 22.2054 13.306 22.2054L13.3431 16.1401C13.3431 15.9979 13.2674 15.8605 13.0939 15.7664C12.8001 15.6069 12.0154 15.2806 11.3176 15.2806C10.9851 15.2806 10.8192 15.4352 10.8192 15.7435L10.7583 25.2326C10.7583 25.9536 10.7771 26.7947 10.8484 27.1626C10.9194 27.5309 11.0345 27.8306 11.177 28.0089C11.3193 28.1868 11.4839 28.3225 11.7553 28.3785C12.0078 28.4305 13.3909 28.6081 13.4628 28.0796C13.5489 27.4462 13.5522 26.761 14.2785 24.2058C15.4091 20.2276 16.8833 18.2866 17.5763 17.5973C17.6974 17.4768 17.8358 17.4696 17.8291 17.6668C17.7996 18.539 17.6955 20.7183 17.6255 22.5699C17.4378 27.5248 18.3391 28.4432 19.6273 28.4432C20.6127 28.4432 22.0019 27.464 23.4911 24.9853C24.4195 23.4407 25.3209 21.9261 25.9685 20.8345C26.4199 21.2523 26.9263 21.7019 27.4325 22.1823C28.6087 23.2986 28.9949 24.3594 28.7386 25.3657C28.5427 26.135 27.8046 26.9278 26.4911 26.1572C26.1083 25.9324 25.9449 25.7587 25.5599 25.5053C25.3531 25.3691 25.0373 25.3284 24.848 25.4711C24.3562 25.8419 24.075 26.3135 23.9144 26.8974C23.7582 27.4656 24.3272 27.7659 24.917 28.0286C25.4249 28.2547 26.5165 28.4596 27.2127 28.4829C29.9252 28.5736 32.0981 27.1732 33.6107 23.5609C33.8815 26.6806 35.0338 28.446 37.036 28.446C38.3745 28.446 39.7166 26.7158 40.3035 25.0137C40.472 25.7075 40.7213 26.3108 41.0434 26.8211C42.5862 29.2654 45.579 28.7393 47.0824 26.6637C47.5472 26.0223 47.618 25.7918 47.618 25.7918C47.8372 27.7517 49.4155 28.4365 50.3192 28.4365C51.3313 28.4365 52.3764 27.958 53.1088 26.3092C53.1946 26.4881 53.2883 26.659 53.3906 26.821C54.9333 29.2654 57.9262 28.7392 59.4296 26.6636C59.5005 26.5662 59.562 26.4779 59.6157 26.3986L59.6599 27.686C59.6599 27.686 58.8022 28.4728 58.2758 28.9554C55.9587 31.0812 54.1969 32.694 54.0673 34.5721C53.9009 36.9669 55.8432 37.8569 57.3125 37.9736C58.873 38.0974 60.2093 37.2354 61.0306 36.0291C61.7531 34.9672 62.2259 32.6819 62.1912 30.4248C62.1774 29.5209 62.1546 28.3717 62.1368 27.1398C62.9512 26.194 63.8687 24.9987 64.7135 23.5996C65.6342 22.0748 66.6209 20.0272 67.1262 18.4337C67.1262 18.4337 67.9835 18.441 68.8984 18.3811C69.191 18.362 69.2751 18.4217 69.221 18.6363C69.1556 18.8955 68.0651 23.1019 69.0604 25.904C69.7416 27.8223 71.2774 28.4394 72.1879 28.4394C73.2538 28.4394 74.2734 27.6345 74.8198 26.4392C74.8857 26.5725 74.9545 26.7014 75.0296 26.8205C76.5724 29.2648 79.5548 28.7356 81.0686 26.6631C81.4103 26.1955 81.6042 25.7912 81.6042 25.7912C81.9291 27.8196 83.5065 28.4463 84.41 28.4463C85.3512 28.4463 86.2444 28.0604 86.9691 26.3457C86.9994 27.1007 87.047 27.7181 87.1223 27.9127C87.1682 28.0317 87.4357 28.1811 87.6302 28.2533C88.4912 28.5726 89.3693 28.4216 89.6942 28.3559C89.9192 28.3104 90.0947 28.1298 90.1187 27.6636C90.1818 26.4394 90.1431 24.3826 90.5142 22.854C91.1371 20.2887 91.7182 19.2936 91.9939 18.8009C92.1482 18.5249 92.3223 18.4794 92.3286 18.7715C92.3416 19.3626 92.3709 21.0983 92.6123 23.4304C92.7895 25.1456 93.0263 26.1594 93.2083 26.4802C93.7275 27.3977 94.3689 27.4412 94.8911 27.4412C95.2234 27.4412 95.9181 27.3494 95.8559 26.7655C95.8257 26.4809 95.8787 24.722 96.4929 22.1947C96.894 20.5442 97.5626 19.0529 97.8038 18.5077C97.8928 18.3067 97.9341 18.4652 97.9327 18.496C97.8819 19.6327 97.7679 23.3504 98.2309 25.3837C98.8586 28.1382 100.674 28.4465 101.307 28.4465C102.658 28.4465 103.763 27.4189 104.135 24.7152C104.225 24.0646 104.092 23.5622 103.694 23.5622" fill="#262626"/>
</g>
<defs>
<clipPath id="clip0_1783_28574">
<rect width="104.167" height="40" fill="white" transform="translate(0.111328)"/>
</clipPath>
</defs>
</svg>
