<svg width="20" height="20" viewBox="0 0 20 20" fill="none" xmlns="http://www.w3.org/2000/svg">
<g clip-path="url(#clip0_5490_5290)">
<path fill-rule="evenodd" clip-rule="evenodd" d="M19.7908 9.9997C19.7908 10.4245 19.4464 10.7689 19.0216 10.7689H0.76923C0.344396 10.7689 0 10.4245 0 9.9997C0 9.57487 0.344397 9.23047 0.769231 9.23047H19.0216C19.4464 9.23047 19.7908 9.57487 19.7908 9.9997Z" fill="#4F46E5"/>
<path fill-rule="evenodd" clip-rule="evenodd" d="M9.9997 20C9.57487 20 9.23047 19.6556 9.23047 19.2308L9.23047 0.76923C9.23047 0.344396 9.57487 0 9.9997 0C10.4245 0 10.7689 0.344396 10.7689 0.76923L10.7689 19.2308C10.7689 19.6556 10.4245 20 9.9997 20Z" fill="#4F46E5"/>
</g>
<defs>
<clipPath id="clip0_5490_5290">
<rect width="20" height="20" fill="white"/>
</clipPath>
</defs>
</svg>
