<svg width="143" height="40" viewBox="0 0 143 40" fill="none" xmlns="http://www.w3.org/2000/svg">
<g clip-path="url(#clip0_1783_28041)">
<path d="M3.86379 16.3771C3.86379 14.1768 2.74935 12.3589 0.666016 10.832H5.50824C6.36183 11.4822 7.05344 12.3211 7.52897 13.2831C8.0045 14.245 8.25106 15.304 8.24935 16.3771C8.25106 17.4502 8.0045 18.5091 7.52897 19.4711C7.05344 20.4331 6.36183 21.272 5.50824 21.9222C7.08046 22.5778 7.97491 24.178 7.97491 26.4682V30.832H3.59046V26.4682C3.59046 24.2869 2.54935 22.76 0.667127 21.9233C2.75046 20.3953 3.8649 18.5784 3.8649 16.3782L3.86379 16.3771ZM13.366 16.3771C13.366 14.1768 12.2516 12.3589 10.1682 10.832H15.0116C15.865 11.4823 16.5564 12.3213 17.0317 13.2832C17.507 14.2452 17.7534 15.3041 17.7516 16.3771C17.7534 17.4501 17.507 18.509 17.0317 19.4709C16.5564 20.4329 15.865 21.2718 15.0116 21.9222C16.5827 22.5778 17.4782 24.178 17.4782 26.4682V30.832H13.0927V26.4682C13.0927 24.2869 12.0505 22.76 10.1682 21.9233C12.2516 20.3953 13.366 18.5784 13.366 16.3782V16.3771ZM22.8705 16.3771C22.8705 14.1768 21.756 12.3589 19.6727 10.832H24.5149C25.3685 11.4822 26.0601 12.3211 26.5356 13.2831C27.0112 14.245 27.2577 15.304 27.256 16.3771C27.2577 17.4502 27.0112 18.5091 26.5356 19.4711C26.0601 20.4331 25.3685 21.272 24.5149 21.9222C26.0871 22.5778 26.9816 24.178 26.9816 26.4682V30.832H22.596V26.4682C22.596 24.2869 21.5549 22.76 19.6727 21.9233C21.756 20.3953 22.8705 18.5784 22.8705 16.3782V16.3771ZM40.6127 27.1983H37.2882V14.468H45.4571C49.386 14.468 51.3227 15.9237 51.3227 18.3051C51.3227 19.923 50.3727 21.141 48.6005 21.7599C50.4271 22.0322 51.2494 22.9956 51.2494 24.7236V27.1961H47.8871V24.8691C47.8871 23.4134 47.156 22.8323 45.2371 22.8323H40.6149V27.1983H40.6127ZM45.2727 16.3226H40.6127V20.9787H45.236C46.9171 20.9787 47.9582 20.0508 47.9582 18.5962C47.9582 17.1594 46.9916 16.3226 45.2727 16.3226ZM57.096 14.468H53.7705V27.1983H57.096V14.468ZM67.2927 23.0501H63.236V27.1961H59.9094V14.468H67.3649C71.2938 14.468 73.3594 16.1048 73.3594 18.724C73.3594 21.4321 71.2582 23.0501 67.2927 23.0501ZM67.2194 16.3226H63.236V21.1954H67.1827C68.9005 21.1954 69.9605 20.3231 69.9605 18.7418C69.9605 17.1961 68.9005 16.3226 67.2194 16.3226ZM82.716 23.0501H78.6594V27.1961H75.3327V14.468H82.7883C86.7171 14.468 88.7827 16.1048 88.7827 18.724C88.7827 21.4321 86.6805 23.0501 82.716 23.0501ZM82.6427 16.3226H78.6594V21.1954H82.606C84.3238 21.1954 85.3838 20.3231 85.3838 18.7418C85.3838 17.1961 84.3238 16.3226 82.6427 16.3226ZM94.0816 14.468V25.3048H102.378V27.1983H90.756V14.468H94.0816ZM107.785 14.468H104.459V27.1983H107.785V14.468ZM112.793 18.7229V27.1983H110.599V14.468H113.087L122.15 22.9412V14.468H124.344V27.1983H121.858L112.793 18.7218V18.7229ZM135.199 15.9593C132.037 15.9593 129.973 17.9595 129.973 20.9409C129.973 23.8857 131.946 25.7048 135.016 25.7048H135.235C136.277 25.7048 137.446 25.4859 138.525 25.1414V21.7044H133.153V19.8864H141.777V25.8681C139.987 26.796 137.282 27.5239 135.089 27.5239H134.797C129.753 27.5239 126.5 24.868 126.5 21.0132C126.5 17.195 129.845 14.1413 134.979 14.1413H135.272C137.41 14.1413 139.858 14.8136 141.668 15.8681L140.717 17.4128C139.092 16.5227 137.154 15.9593 135.418 15.9593H135.199Z" fill="black"/>
</g>
<defs>
<clipPath id="clip0_1783_28041">
<rect width="141.667" height="40" fill="white" transform="translate(0.666016)"/>
</clipPath>
</defs>
</svg>
