<svg width="184" height="40" viewBox="0 0 184 40" fill="none" xmlns="http://www.w3.org/2000/svg">
<path fill-rule="evenodd" clip-rule="evenodd" d="M6.78339 22.0286L17.0272 11.6593C17.7232 10.9548 18.6493 10.5674 19.6364 10.5674C20.6227 10.5674 21.5488 10.9544 22.244 11.6589L23.0421 12.4668L24.6387 10.8507L23.8406 10.0428C22.7194 8.90788 21.2264 8.28284 19.6356 8.28284C18.0456 8.2832 16.5522 8.90825 15.431 10.0435L5.18717 20.4125L6.78339 22.0286Z" fill="black"/>
<path fill-rule="evenodd" clip-rule="evenodd" d="M20.489 15.1036L18.8848 13.4899L8.59287 23.8438C7.14758 25.2977 4.79597 25.2981 3.35104 23.8445C1.90575 22.3906 1.90575 20.0245 3.35104 18.5706L12.232 9.63681L10.6279 8.02344L1.74728 16.9572C-0.582425 19.3008 -0.582425 23.1146 1.74728 25.4579C2.87378 26.5911 4.37385 27.2156 5.97141 27.2156C7.56934 27.2156 9.07013 26.5908 10.1966 25.4575L20.489 15.1036Z" fill="black"/>
<path fill-rule="evenodd" clip-rule="evenodd" d="M30.6717 17.0427C29.5455 15.9095 28.0455 15.2853 26.4472 15.2853C24.8492 15.2857 23.3484 15.9098 22.2219 17.0435L11.9303 27.3972L13.5337 29.011L23.8261 18.6569C25.2717 17.2029 27.623 17.2033 29.0679 18.6565C29.7668 19.3596 30.1517 20.2956 30.1517 21.293C30.1517 22.2907 29.7668 23.2271 29.0679 23.9302L20.1873 32.8641L21.7914 34.4775L30.6717 25.5439C33.0018 23.2002 33.0018 19.3864 30.6717 17.0427Z" fill="black"/>
<path fill-rule="evenodd" clip-rule="evenodd" d="M25.6361 20.4724L15.3925 30.8416C13.9536 32.2974 11.6135 32.2981 10.1754 30.842L9.37731 30.0341L7.78076 31.6503L8.57886 32.4581C9.70004 33.5931 11.193 34.2181 12.7841 34.2181C14.3741 34.2177 15.8671 33.5927 16.9886 32.4574L27.2323 22.0885L25.6361 20.4724Z" fill="black"/>
<path fill-rule="evenodd" clip-rule="evenodd" d="M41.879 23.9505C42.0112 24.6121 42.3208 25.1301 42.8073 25.5033C43.2933 25.8773 43.933 26.0639 44.7261 26.0639C45.5066 26.0639 46.1099 25.8802 46.5365 25.5126C46.963 25.1453 47.1761 24.6613 47.1761 24.0608C47.1761 23.7668 47.1191 23.5187 47.0051 23.3166C46.8908 23.1144 46.7318 22.943 46.5278 22.8019C46.323 22.6616 46.0711 22.5416 45.7709 22.4439C45.4707 22.3458 45.1342 22.2417 44.7617 22.1314L43.7892 21.8559C43.2124 21.6967 42.6958 21.5038 42.2395 21.2768C41.7828 21.0502 41.3926 20.7837 41.0684 20.4775C40.7443 20.1713 40.4978 19.8191 40.3297 19.4207C40.1616 19.0227 40.0774 18.5599 40.0774 18.0334C40.0774 17.4821 40.1856 16.9737 40.4019 16.5079C40.6179 16.0429 40.9243 15.6441 41.3207 15.3135C41.7171 14.9829 42.1974 14.7226 42.7622 14.5323C43.3264 14.3431 43.9627 14.2479 44.6717 14.2479C46.005 14.2479 47.0618 14.5693 47.843 15.2124C48.6235 15.8559 49.0798 16.7164 49.2123 17.7946L47.0502 17.9782C46.9177 17.4269 46.6537 16.9982 46.2573 16.692C45.8609 16.3858 45.3084 16.2325 44.5998 16.2325C43.9391 16.2325 43.4226 16.3887 43.0505 16.7012C42.6777 17.0137 42.4914 17.4151 42.4914 17.9049C42.4914 18.1867 42.5459 18.4222 42.6541 18.6121C42.7622 18.8024 42.918 18.9676 43.1224 19.1083C43.3264 19.2493 43.5758 19.3748 43.8698 19.4848C44.1642 19.5951 44.4974 19.7121 44.8699 19.8343L45.789 20.1283C46.3651 20.312 46.885 20.5049 47.3471 20.707C47.8096 20.9092 48.2031 21.1513 48.5273 21.4331C48.8518 21.7149 49.1012 22.0518 49.2751 22.4439C49.4493 22.836 49.5364 23.3199 49.5364 23.8957C49.5364 24.5084 49.4163 25.069 49.1763 25.577C48.9356 26.0857 48.5999 26.5174 48.1671 26.8725C47.7348 27.228 47.2215 27.5038 46.6265 27.6993C46.0319 27.8952 45.3745 27.9936 44.6539 27.9936C43.3206 27.9936 42.2094 27.6752 41.3207 27.038C40.4317 26.4008 39.8854 25.4393 39.681 24.1526L41.879 23.9505Z" fill="black"/>
<path fill-rule="evenodd" clip-rule="evenodd" d="M58.8371 16.4827C58.189 16.4827 57.6094 16.6047 57.0992 16.848C56.5886 17.0916 56.1564 17.4292 55.8026 17.8611C55.4481 18.2934 55.1777 18.805 54.9916 19.3946C54.8058 19.9854 54.7129 20.6274 54.7129 21.3211C54.7129 22.015 54.8087 22.66 55.001 23.2567C55.1926 23.853 55.4662 24.3701 55.8204 24.8086C56.1742 25.2465 56.6068 25.5903 57.1174 25.8402C57.6272 26.0893 58.2067 26.2139 58.8552 26.2139C59.5037 26.2139 60.0829 26.0956 60.5934 25.8583C61.1033 25.6209 61.5359 25.2892 61.89 24.8628C62.2442 24.4371 62.5175 23.9226 62.7094 23.3204C62.9014 22.7179 62.9976 22.0574 62.9976 21.3395C62.9976 20.6333 62.9014 19.9821 62.7094 19.3858C62.5175 18.7899 62.2442 18.2783 61.89 17.8523C61.5359 17.4266 61.1004 17.0916 60.584 16.848C60.068 16.6047 59.4855 16.4827 58.8371 16.4827ZM58.8552 14.5073C59.8278 14.5073 60.7165 14.675 61.521 15.0104C62.3251 15.3458 63.0095 15.8149 63.5742 16.4186C64.1381 17.0227 64.5761 17.745 64.8889 18.5864C65.201 19.4278 65.357 20.3484 65.357 21.3483C65.357 22.3854 65.1919 23.3212 64.8621 24.1563C64.5311 24.9918 64.0604 25.7142 63.4479 26.3237L65.177 28.3909V29.0311H62.9798L61.7728 27.5315C61.3526 27.7264 60.9019 27.8787 60.4222 27.9885C59.9417 28.0983 59.4253 28.1532 58.8734 28.1532C57.8765 28.1532 56.9791 27.9852 56.1807 27.6502C55.382 27.3148 54.7034 26.8452 54.1453 26.2416C53.5868 25.6379 53.1547 24.9188 52.8487 24.083C52.5425 23.2478 52.3893 22.3364 52.3893 21.3483C52.3893 20.3484 52.5425 19.4311 52.8487 18.5953C53.1547 17.7605 53.5897 17.0407 54.1544 16.437C54.7183 15.8333 55.3998 15.3609 56.1985 15.0192C56.9972 14.6783 57.8827 14.5073 58.8552 14.5073Z" fill="black"/>
<path fill-rule="evenodd" clip-rule="evenodd" d="M74.1751 26.1012C75.0965 26.1012 75.8143 25.8106 76.3289 25.2286C76.8432 24.6466 77.1006 23.7555 77.1006 22.5549V14.5073H79.3622V22.6101C79.3622 23.5656 79.2425 24.383 79.0031 25.0631C78.7634 25.7428 78.4227 26.3004 77.9801 26.7353C77.5375 27.1703 76.9929 27.4887 76.347 27.6909C75.7008 27.893 74.9768 27.9937 74.1751 27.9937C73.3611 27.9937 72.6343 27.893 71.9946 27.6909C71.3541 27.4887 70.8128 27.1703 70.3702 26.7353C69.9275 26.3004 69.5865 25.7428 69.3468 25.0631C69.1074 24.383 68.988 23.5656 68.988 22.6101V14.5073H71.2496V22.5549C71.2496 23.7555 71.5067 24.6466 72.0213 25.2286C72.5359 25.8106 73.2537 26.1012 74.1751 26.1012Z" fill="black"/>
<path fill-rule="evenodd" clip-rule="evenodd" d="M85.8414 22.0812H90.1688L89.4566 20.0223C89.1763 19.2159 88.9515 18.5595 88.7812 18.054C88.6105 17.5482 88.4582 17.1028 88.3246 16.7174H87.7588C87.6856 16.9219 87.6124 17.1268 87.5395 17.3313C87.4663 17.5362 87.3843 17.7651 87.2931 18.0176C87.2014 18.2705 87.1014 18.5595 86.9918 18.8848C86.8821 19.2094 86.7482 19.5889 86.59 20.0223L85.8414 22.0812ZM81.6964 27.1022L86.3527 14.7666H89.8039L94.4047 27.1022V27.7343H92.1407L90.8262 24.0317H85.1475L83.8331 27.7343H81.6964V27.1022Z" fill="black"/>
<path fill-rule="evenodd" clip-rule="evenodd" d="M99.5001 20.6906H101.471C102.34 20.6906 103.023 20.5323 103.524 20.2164C104.024 19.9002 104.275 19.3842 104.275 18.6676C104.275 17.9398 104.021 17.4329 103.515 17.1465C103.009 16.8605 102.328 16.7171 101.471 16.7171H99.5001V20.6906ZM107.113 27.7343H104.925L100.965 22.6411H99.5001V27.7343H97.2579V14.7666H101.471C102.134 14.7666 102.764 14.8117 103.361 14.902C103.958 14.9922 104.497 15.2 104.98 15.525C106.004 16.1989 106.517 17.2164 106.517 18.5763C106.517 19.1666 106.429 19.6811 106.254 20.1207C106.079 20.5599 105.847 20.9329 105.558 21.2401C105.269 21.5472 104.934 21.7968 104.555 21.989C104.175 22.1819 103.78 22.3263 103.37 22.4224L107.113 27.1018V27.7343Z" fill="black"/>
<path fill-rule="evenodd" clip-rule="evenodd" d="M109.966 14.7666H118.397V16.7531H112.196V20.1486H117.962V22.099H112.196V25.7474H118.525V27.7343H109.966V14.7666Z" fill="black"/>
<path fill-rule="evenodd" clip-rule="evenodd" d="M123.576 23.9505C123.708 24.6121 124.018 25.1301 124.504 25.5033C124.99 25.8773 125.63 26.0639 126.423 26.0639C127.203 26.0639 127.807 25.8802 128.233 25.5126C128.66 25.1453 128.873 24.6613 128.873 24.0608C128.873 23.7668 128.816 23.5187 128.702 23.3166C128.588 23.1144 128.428 22.943 128.224 22.8019C128.02 22.6616 127.768 22.5416 127.468 22.4439C127.167 22.3458 126.831 22.2417 126.458 22.1314L125.486 21.8559C124.909 21.6967 124.392 21.5038 123.936 21.2768C123.48 21.0502 123.089 20.7837 122.766 20.4775C122.441 20.1713 122.195 19.8191 122.026 19.4207C121.858 19.0227 121.774 18.5599 121.774 18.0334C121.774 17.4821 121.882 16.9737 122.099 16.5079C122.315 16.0429 122.621 15.6441 123.017 15.3135C123.414 14.9829 123.894 14.7226 124.459 14.5323C125.023 14.3431 125.66 14.2479 126.368 14.2479C127.702 14.2479 128.758 14.5693 129.539 15.2124C130.32 15.8559 130.777 16.7164 130.909 17.7946L128.747 17.9782C128.615 17.4269 128.35 16.9982 127.954 16.692C127.558 16.3858 127.005 16.2325 126.296 16.2325C125.636 16.2325 125.119 16.3887 124.747 16.7012C124.375 17.0137 124.188 17.4151 124.188 17.9049C124.188 18.1867 124.243 18.4222 124.351 18.6121C124.459 18.8024 124.615 18.9676 124.819 19.1083C125.023 19.2493 125.272 19.3748 125.567 19.4848C125.861 19.5951 126.194 19.7121 126.566 19.8343L127.486 20.1283C128.062 20.312 128.582 20.5049 129.044 20.707C129.506 20.9092 129.9 21.1513 130.224 21.4331C130.548 21.7149 130.798 22.0518 130.972 22.4439C131.146 22.836 131.233 23.3199 131.233 23.8957C131.233 24.5084 131.113 25.069 130.873 25.577C130.632 26.0857 130.296 26.5174 129.864 26.8725C129.431 27.228 128.918 27.5038 128.323 27.6993C127.728 27.8952 127.071 27.9936 126.351 27.9936C125.018 27.9936 123.906 27.6752 123.017 27.038C122.128 26.4008 121.582 25.4393 121.378 24.1526L123.576 23.9505Z" fill="black"/>
<path fill-rule="evenodd" clip-rule="evenodd" d="M136.902 20.7989H139.108C139.513 20.7989 139.884 20.7661 140.221 20.7002C140.557 20.6347 140.852 20.5245 141.103 20.3691C141.355 20.2141 141.55 20.0052 141.692 19.7425C141.832 19.4801 141.903 19.1577 141.903 18.7756C141.903 18.3819 141.832 18.0511 141.692 17.7825C141.55 17.514 141.357 17.3022 141.112 17.1468C140.867 16.9914 140.576 16.8812 140.239 16.8157C139.902 16.7502 139.537 16.7171 139.145 16.7171H136.902V20.7989ZM134.604 14.7666H139.421C140.316 14.7666 141.066 14.8689 141.673 15.0737C142.28 15.2782 142.77 15.561 143.144 15.9227C143.517 16.2837 143.787 16.708 143.952 17.196C144.118 17.6832 144.201 18.2101 144.201 18.776C144.201 19.4506 144.087 20.0372 143.861 20.5369C143.634 21.0365 143.306 21.4488 142.877 21.7741C142.448 22.099 141.927 22.3429 141.315 22.5055C140.702 22.6682 140.009 22.7493 139.237 22.7493H136.902V27.7343H134.604V14.7666Z" fill="black"/>
<path fill-rule="evenodd" clip-rule="evenodd" d="M148.865 22.0812H153.192L152.48 20.0223C152.2 19.2159 151.974 18.5595 151.804 18.054C151.634 17.5482 151.481 17.1028 151.348 16.7174H150.782C150.709 16.9219 150.636 17.1268 150.562 17.3313C150.49 17.5362 150.407 17.7651 150.316 18.0176C150.225 18.2705 150.125 18.5595 150.015 18.8848C149.905 19.2094 149.771 19.5889 149.613 20.0223L148.865 22.0812ZM144.72 27.1022L149.376 14.7666H152.827L157.428 27.1022V27.7343H155.164L153.85 24.0317H148.171L146.856 27.7343H144.72V27.1022Z" fill="black"/>
<path fill-rule="evenodd" clip-rule="evenodd" d="M171.174 24.3057C170.968 24.812 170.697 25.2885 170.364 25.7354C170.03 26.1823 169.627 26.5739 169.154 26.9082C168.681 27.2426 168.132 27.507 167.507 27.7015C166.883 27.8961 166.189 27.9937 165.424 27.9937C164.454 27.9937 163.572 27.8247 162.777 27.487C161.983 27.1501 161.305 26.6828 160.743 26.0865C160.182 25.4895 159.748 24.7789 159.442 23.9531C159.136 23.1278 158.984 22.2328 158.984 21.2683C158.984 20.3045 159.136 19.4096 159.442 18.5839C159.748 17.7585 160.184 17.0442 160.752 16.4414C161.32 15.8393 162.001 15.3658 162.796 15.0227C163.59 14.6788 164.478 14.5073 165.461 14.5073C166.892 14.5073 168.09 14.8391 169.054 15.5017C170.019 16.1642 170.701 17.0442 171.101 18.1409L168.79 18.5926C168.475 17.9301 168.035 17.4085 167.471 17.0289C166.907 16.6494 166.225 16.4596 165.424 16.4596C164.782 16.4596 164.208 16.5827 163.705 16.829C163.202 17.0752 162.777 17.4143 162.432 17.8466C162.086 18.2786 161.822 18.7889 161.64 19.3775C161.458 19.9658 161.367 20.5959 161.367 21.2683C161.367 21.9527 161.461 22.5861 161.649 23.1686C161.837 23.7514 162.11 24.2551 162.468 24.6816C162.826 25.1078 163.259 25.4407 163.769 25.6807C164.278 25.9211 164.86 26.0413 165.515 26.0413C166.365 26.0413 167.065 25.8363 167.617 25.4265C168.169 25.0167 168.596 24.5166 168.899 23.9258L171.174 24.3057Z" fill="black"/>
<path fill-rule="evenodd" clip-rule="evenodd" d="M174.141 14.61H182.62V16.6158H176.384V20.0442H182.183V22.0135H176.384V25.6972H182.748V27.7033H174.141V14.61Z" fill="black"/>
</svg>
