<svg width="97" height="33" viewBox="0 0 97 33" fill="none" xmlns="http://www.w3.org/2000/svg">
<path d="M1.45996 4.44394C9.63018 1.37842 19.6281 -0.176439 27.6302 4.2685C29.6571 5.39434 31.3984 7.10367 32.6921 9.11563M32.6921 9.11563C34.6625 12.18 35.5944 15.9464 34.9147 19.4224C33.8514 24.8607 30.4882 29.9186 24.6371 30.4499C21.5873 30.7268 18.8039 29.6295 17.8815 26.4903C16.4722 21.6944 20.7707 16.0686 24.4068 13.4932C26.9208 11.7126 29.7209 10.2478 32.6921 9.11563ZM95.5795 6.6256C87.5485 3.21181 77.6267 1.22873 69.4409 5.32568C67.3676 6.36338 65.5543 7.9963 64.1754 9.9508M64.1754 9.9508C62.0751 12.9277 60.9822 16.6505 61.5119 20.1525C62.3406 25.6315 65.4833 30.8292 71.3061 31.6115C74.3412 32.0192 77.1692 31.0425 78.2257 27.9459C79.8397 23.215 75.787 17.4096 72.2649 14.6804C69.8298 12.7934 67.0952 11.2096 64.1754 9.9508ZM64.1754 9.9508C53.9158 5.52769 42.4661 4.53122 32.5882 9.07894" stroke="#4A3AFF" stroke-width="2" stroke-linecap="round"/>
</svg>
